<?xml version="1.0" encoding="UTF-8"?>
<!DOCTYPE svg PUBLIC "-//W3C//DTD SVG 1.1//EN" "http://www.w3.org/Graphics/SVG/1.1/DTD/svg11.dtd">
<!-- Creator: CorelDRAW (Versión de evaluación) -->
<svg xmlns="http://www.w3.org/2000/svg" xml:space="preserve" width="169.418mm" height="85.9872mm" version="1.1" style="shape-rendering:geometricPrecision; text-rendering:geometricPrecision; image-rendering:optimizeQuality; fill-rule:evenodd; clip-rule:evenodd"
viewBox="0 0 2959.71 1502.18"
 xmlns:xlink="http://www.w3.org/1999/xlink"
 xmlns:xodm="http://www.corel.com/coreldraw/odm/2003">
 <defs>
  <style type="text/css">
   <![CDATA[
    .fil8 {fill:#693501}
    .fil7 {fill:#693605}
    .fil36 {fill:#6B3903}
    .fil9 {fill:#6D3302}
    .fil11 {fill:#6D3500}
    .fil16 {fill:#9B5C1B}
    .fil29 {fill:#9C5A0C}
    .fil34 {fill:#9C5B14}
    .fil28 {fill:#A35C13}
    .fil25 {fill:#A45B0B}
    .fil19 {fill:#A45E22}
    .fil15 {fill:#A75D18}
    .fil18 {fill:#A76418}
    .fil5 {fill:#AB5C0B}
    .fil38 {fill:#AB631C}
    .fil14 {fill:#D78B38}
    .fil27 {fill:#DA9539}
    .fil12 {fill:#DC9343}
    .fil13 {fill:#DD943B}
    .fil40 {fill:#E39335}
    .fil41 {fill:#E4943B}
    .fil37 {fill:#E49543}
    .fil23 {fill:#E49B42}
    .fil21 {fill:#E5993D}
    .fil33 {fill:#E6963D}
    .fil24 {fill:#E8963D}
    .fil26 {fill:#E9963A}
    .fil4 {fill:#EA993E}
    .fil20 {fill:#EA9A41}
    .fil35 {fill:#F3AB4E}
    .fil42 {fill:#F3B45A}
    .fil31 {fill:#F4B254}
    .fil32 {fill:#F6B557}
    .fil3 {fill:#F7B658}
    .fil39 {fill:#F9B55A}
    .fil30 {fill:#FBB356}
    .fil17 {fill:#FDD977}
    .fil10 {fill:#FED375}
    .fil22 {fill:#FFD57D}
    .fil6 {fill:#FFD67A}
    .fil1 {fill:white;fill-rule:nonzero}
    .fil0 {fill:#727271;fill-rule:nonzero;fill-opacity:0.380392}
    .fil2 {fill:#727271;fill-rule:nonzero;fill-opacity:0.529412}
   ]]>
  </style>
 </defs>
 <g id="Capa_x0020_1">
  <metadata id="CorelCorpID_0Corel-Layer"/>
  <g id="_2801131022864">
   <g filter="url(#filter0_d_145_1359)">
    <path class="fil0" d="M61.57 458.87c0,0 641.39,207.32 1300.06,0 658.66,-207.32 1598.08,0 1598.08,0l0 950.21c0,0 -796.88,-209.47 -1449.07,0 -652.19,209.48 -1449.07,0 -1449.07,0l0 -950.21z"/>
   </g>
  </g>
  <g id="_2801131028192">
   <g filter="url(#filter0_d_145_1359)">
    <path class="fil1" d="M0 384.99c0,0 641.39,207.32 1300.06,0 658.66,-207.32 1598.08,0 1598.08,0l0 950.21c0,0 -796.88,-209.47 -1449.07,0 -652.19,209.48 -1449.07,0 -1449.07,0l0 -950.21z"/>
   </g>
  </g>
  <g id="_2801131034000">
   <path class="fil2" d="M2419.34 948.53c0,-13.37 4.65,-24.92 13.94,-34.89 9.4,-9.97 21.64,-14.95 36.71,-14.95 18.47,0 33.53,8.27 45.32,24.7 11.67,16.54 17.56,35.01 17.56,55.29 0,29.91 -10.54,60.05 -31.72,90.52 -21.19,30.48 -35.69,45.66 -43.62,45.66 -2.15,0 -6.68,-2.49 -13.48,-7.59l-3.29 -2.38c-5.67,-3.74 -8.5,-6.8 -8.5,-8.95 0,-1.59 2.95,-6.57 8.84,-14.95 16.43,-23.68 24.7,-42.26 24.7,-55.74 0,-10.42 -5.32,-19.26 -15.86,-26.62 -10.54,-7.25 -18.24,-15.18 -23.22,-23.57 -4.87,-8.38 -7.37,-17.22 -7.37,-26.51z"/>
   <path class="fil2" d="M2568.89 948.53c0,-13.6 4.76,-25.26 14.28,-35.12 9.63,-9.86 21.75,-14.73 36.37,-14.73 18.47,0 33.53,8.27 45.32,24.7 11.67,16.54 17.56,35.01 17.56,55.29 0,14.62 -3.4,31.27 -10.31,49.96 -6.91,18.81 -18.01,37.84 -33.31,57.21 -15.18,19.37 -25.83,29 -31.72,29 -2.15,0 -6.68,-2.49 -13.48,-7.59l-3.29 -2.38c-5.67,-3.74 -8.5,-6.8 -8.5,-8.95 0,-1.59 2.95,-6.57 8.84,-14.95 16.43,-23.68 24.7,-42.26 24.7,-55.74 0,-6.68 -1.59,-11.9 -4.53,-15.86 -2.95,-3.85 -8.5,-8.84 -16.54,-14.84 -8.16,-6.12 -14.39,-13.03 -18.81,-20.85 -4.42,-7.7 -6.57,-16.09 -6.57,-25.15z"/>
  </g>
  <g id="_2801131046672">
   <path class="fil3" d="M2184.15 1092.43c6.21,-3.89 10.33,-1.68 9.6,5.38 -2.31,-0.36 -3.55,-0.61 -5.4,-1.31 -8.33,-3.15 -2.41,-1.97 -4.2,-4.07zm48.49 -11.74c1.66,3.84 1.22,0.51 0.68,5.87 -2.98,1.98 -5.11,2.89 -9.48,2.61 1.67,-3.75 0.66,-2.63 2.9,-4.94l-3.57 -2.68c1.64,-2.99 3.94,-6.91 7.73,-7.34 6.86,-0.77 7.59,4.23 1.74,6.47zm62.99 3c-1.44,-3.39 -0.09,-14.69 11.36,-10.98 -1.17,2.26 -7.7,9.88 -11.36,10.98zm-45.35 -24.27c0.37,-11.42 7,-19.35 20.25,-16.43l7.14 11.31 2.24 7.27c-0.01,2.08 -0.3,3.82 -1.14,5.52 -1.67,3.37 -5.53,5.06 -10.04,5.43 -9.36,0.77 -16.88,-3.82 -18.46,-13.1zm-52.57 -36.41c8.34,3.91 8.37,13.73 6.14,21.4 0.22,0.24 3.56,0.07 0.51,4.66 -0.66,0.99 -2.78,2.13 -3.76,2.43 -1.16,0.36 -3.59,0.85 -5.07,0.3 -4.52,-1.67 -1.77,0.89 -3.18,-4.33 -2.6,0.31 -5.09,0.81 -7.7,0.36 -8.06,-1.37 -4.18,-0.99 -5.25,-4.04 -4.56,-3.95 -12.22,-12.23 -3.57,-20.33 6.15,-5.76 16.22,-6.97 21.89,-0.46zm-51.48 13.84c-1.92,-3.11 -2.52,-5.12 -1.74,-10.06l5.66 0.2c1.48,4.25 -1.5,7.08 -3.92,9.86zm92.76 -24.93c1.39,-6.66 11.26,-9.97 9.28,-0.85 -3.24,2.88 -4.38,4.09 -9.28,0.85zm-7.83 -7.62c-3.9,-0.85 -2.75,-2.06 -2.66,-4.27 2.58,-1.03 -3.06,-1.04 3.43,-0.85 5.25,0.15 1.3,0.27 3.11,1.44 -0.36,1.32 0.65,4.67 -3.88,3.68zm-87.32 -1.69c-2.78,-10.47 5.51,-20.76 13.43,-13.32 7.62,7.16 -2.12,14.75 -13.43,13.32zm156.6 -26.54c2.8,2.36 1.53,-0.09 3.06,3.92 0,0.01 0.67,5.03 0.67,5.05 0.45,5.16 0.99,4.15 -0.5,9.22 3.13,1.38 2.93,-1.94 3.25,4.52 0.18,3.71 -2.82,9.63 -11.57,9.76l-0.6 -2.42c-3.46,0.72 -7.24,1.7 -11.53,1.14 -1.06,-0.14 -4.34,-1 -5.17,-1.62 -2.79,-2.11 -1.25,-0.42 -2.59,-3.99 -9.73,-11.76 -1.14,-17.3 0.68,-21.88 1.28,-3.22 0.89,-5.44 2.37,-8.78 11.84,-3.31 16.81,-2.79 21.95,5.07zm-49.85 -10.91c-7.99,-2.37 -3.01,0.94 -4.56,-4.09 6.35,-3.74 11.13,-1.26 11.21,5.26 -2.55,-0.22 -3.6,-0.27 -6.65,-1.17zm-44.18 -12.38c-0.93,-10.85 7.12,-9.34 11.09,-5.83 -3.33,3.49 -7.02,5.14 -11.09,5.83zm-37.11 1.45c9.2,0.47 11.15,2.24 15.54,8.29 1.54,1.23 2.42,0.42 3.73,4.53 0.95,2.97 0.89,2.36 0.1,5.19 -0.56,2.02 -9.06,10.97 -13.26,12.71 -11.37,4.7 -13.73,-0.87 -17.76,-5.15 -0.91,-4.6 -2.64,-8.44 -1.8,-15.51 -9.91,0.26 -21.36,26.57 -26.12,36.8 -2.82,-2.63 -3.22,4.05 -2.07,-4.72 -2.34,3.44 -2.04,7.33 -3.19,12.3 3.73,0.93 4.14,-2.04 3.31,14.63 -0.33,6.65 0.74,5.76 -3.05,9.24 -3.46,-8.25 -3.2,-10.02 -0.82,-18.71 -5.39,6.88 -0.5,34.58 2.57,38.69 3.93,5.26 -0.03,1.33 4.47,3.52 5.2,-9.98 12.48,-4.38 17.72,1.15 4.63,4.9 12.51,9.38 7.09,19.3 0.45,5.21 -6.45,5.04 -10.99,8.86 0.38,9.03 5.14,13.23 10.42,17.52 6.54,5.32 9.54,7.54 18.16,11.12 5.97,-4.56 8.42,-6 13.93,0.64 4.71,5.68 3.9,5.27 10.8,9.95l1.63 1.93c4.39,5.28 9.9,8.44 17.02,9.28 10.45,1.24 17.98,-1.92 25.64,-5.83 -1,-16.43 19.96,-25.88 27.68,-11.4 2.07,1.41 1.01,-0.8 3.18,2.77l5.02 -2.29c-2.66,-2.66 -5.6,-7.63 -1.17,-12.64 5.85,-6.62 10.3,-1.9 13.92,0.62 14.78,4.75 12.62,-0.43 27.45,-22.89 2.4,-3.64 8.21,-13.5 9.66,-17.25 2.53,-6.57 1.68,-10.94 -2.08,-14.43 -4.39,-4.07 -0.25,3.84 -4.28,-4.15 -5.8,-5.9 -2.08,-17.8 2.26,-25.14l8.03 0.34c4.37,-1.62 3.14,0.29 3.01,-7.2 -0.31,-17.25 -8.98,-25.83 -13.02,-36.52 -1.77,-4.69 -3.65,-10.87 -6.17,-14.99 -1.01,4.85 1.74,1.52 -1.86,3.47 -10.34,-6.2 -4.48,-4.31 -16.38,-16.21 -3.55,-3.55 -0.12,-0.87 -4.71,-3.79 -1.95,-1.25 -2.7,-1.61 -4.4,-2.61 -6.68,-3.92 -3.95,-2.9 -8.64,-7.19 1.48,-1.82 -4.31,-2.29 2.73,-1.29 -1.57,-1.14 2.58,-1.72 -3.3,-0.81 -1.65,3.36 -1.37,20.33 -9.41,12.89 -4.23,-0.91 -15.57,-6.26 -18.68,-9.37 -0.02,-4.47 1.28,-5.36 3.14,-8.3 1.31,-7.39 0.33,-3.23 -1.17,-4.9l-0.85 5.17c-22.93,0.64 -26.02,-0.34 -47.42,4.95 -8.44,2.09 -32.52,8.07 -35.61,17.43z"/>
   <path class="fil4" d="M2282.6 937.18c4.32,1.25 7.03,3.11 10.14,5.62 8.62,6.96 15.76,11.77 23.12,22.01 2.51,4.12 4.4,10.31 6.17,14.99 4.04,10.68 12.72,19.27 13.02,36.52 0.13,7.5 1.36,5.59 -3.01,7.2 5.08,3.95 6.99,8.01 3.08,16.61 -2.87,6.31 -5.72,7.78 -13.37,8.2 4.03,7.99 -0.11,0.08 4.28,4.15 3.76,3.49 4.61,7.85 2.08,14.43 -1.45,3.76 -7.26,13.62 -9.66,17.25 -14.82,22.46 -12.67,27.64 -27.45,22.89 -0.28,10.09 -1.37,14.36 -12.76,12.02l-5.02 2.29c-2.17,-3.58 -1.1,-1.36 -3.18,-2.77 -0.68,7.79 -5.03,10.99 -10.42,14.05 -8.55,4.86 -13.59,4.43 -17.25,-2.65 -7.67,3.91 -15.2,7.06 -25.64,5.83 -7.12,-0.84 -12.63,-4.01 -17.02,-9.28l-1.63 -1.93c2.91,16.73 -32.65,8.99 -24.74,-10.6 -8.62,-3.58 -11.62,-5.81 -18.16,-11.12 -5.27,-4.29 -10.04,-8.49 -10.42,-17.52 4.53,-3.83 11.44,-3.65 10.99,-8.86 -16.98,7.91 -30.02,-1.48 -24.8,-20.46 -4.5,-2.19 -0.54,1.74 -4.47,-3.52 -3.07,-4.11 -7.96,-31.81 -2.57,-38.69l0.56 -5.16c1.15,-4.98 0.85,-8.87 3.19,-12.3 3.32,-13.24 11.33,-25.8 18.27,-33.92l19.85 -18.33c20.96,-16.41 73.23,-30.48 87.4,-17.45 1.5,1.67 2.48,-2.49 1.17,4.9 7.53,-2.85 14.25,-2.32 18.07,3.23 3.62,5.26 4.96,14.04 -2.53,14.44 8.03,7.44 7.75,-9.52 9.41,-12.89 5.89,-0.9 1.74,-0.32 3.3,0.81zm63.19 108.64c3.28,-16.29 -0.92,-36.47 -7.67,-49.69 -17.47,-34.22 -7.78,-29.22 -34.99,-52.42 -5.81,-4.95 -10.2,-7.13 -17.32,-10.88 -32.46,-17.11 -59.17,-17.83 -93.04,-8.12 -18.02,5.17 -25.13,11.03 -37.21,20.58 -27.08,21.42 -36.63,39.33 -41.71,73.92 -2.63,17.92 0.74,36.32 5.84,52.86 5.37,17.42 14.12,25.79 22.74,35.18 14.06,15.31 40.23,41.34 74.05,41.54 19.4,0.11 34.47,0.34 51.63,-6.22 10.16,-3.89 32.54,-14.99 37.62,-20.24 4.03,-4.16 8,-11.75 12.51,-17.13 14.81,-17.68 22.73,-35.4 27.55,-59.38z"/>
   <path class="fil5" d="M2345.79 1045.82c-4.83,23.97 -12.74,41.7 -27.55,59.38 -4.51,5.38 -8.48,12.97 -12.51,17.13 -5.08,5.25 -27.46,16.35 -37.62,20.24 -17.15,6.57 -32.23,6.34 -51.63,6.22 -33.83,-0.2 -60,-26.23 -74.05,-41.54 -8.62,-9.39 -17.37,-17.76 -22.74,-35.18 -5.1,-16.54 -8.47,-34.94 -5.84,-52.86 5.08,-34.59 14.63,-52.5 41.71,-73.92 12.08,-9.55 19.19,-15.42 37.21,-20.58 33.87,-9.71 60.58,-8.99 93.04,8.12 7.11,3.75 11.51,5.93 17.32,10.88 27.21,23.21 17.51,18.21 34.99,52.42 6.75,13.22 10.95,33.4 7.67,49.69zm-133.03 -130.21c-19,4.38 -30.65,5.66 -45.07,14.96 -13.45,8.68 -39.84,32.72 -46.12,44.33 -17.64,32.64 -18.37,89.67 3.47,120.03l13.74 15.89c28.42,32.06 55.08,48.56 107.62,42.66 16.99,-1.91 30.5,-8.43 44.13,-15.26 19.89,-9.96 19.62,-14.25 31.64,-29.19 16.75,-20.83 34.88,-54 27.7,-92.19 -3.84,-20.41 -10.4,-26.05 -16.65,-42.4 -15.28,-39.99 -76.58,-68.95 -120.44,-58.83z"/>
   <path class="fil6" d="M2127.66 996.38c-1.15,8.77 -0.75,2.09 2.07,4.72 4.77,-10.23 16.21,-36.54 26.12,-36.8 3.92,-5.3 5.39,-8.31 13.45,-10.06 3.09,-9.36 27.17,-15.35 35.61,-17.43 21.4,-5.29 24.49,-4.31 47.42,-4.95l0.85 -5.17c-14.17,-13.03 -66.44,1.03 -87.4,17.45l-19.85 18.33c-6.94,8.11 -14.95,20.67 -18.27,33.92z"/>
   <path class="fil7" d="M2273.41 990.98c0.83,-4.8 2.33,-4.69 4.13,-8.5 1.9,-4.01 1.48,-6.41 3.09,-9.37 7.28,-2.6 11.66,-3.27 15.62,2.09 -4.76,3.33 -10.83,0.13 -14.72,4.25 -3.51,3.71 -3.19,7.37 -8.12,11.54zm2.04 10.68c8.51,2.54 14.89,2.98 21.11,-2.95 6.36,-6.06 3.9,-12.56 3.88,-22.64 -5.13,-7.86 -10.11,-8.38 -21.95,-5.07 -1.48,3.34 -1.08,5.56 -2.37,8.78 -1.83,4.58 -10.41,10.12 -0.68,21.88z"/>
   <path class="fil8" d="M2157.7 972.31c-0.16,-5.54 -1.09,-4.39 1.9,-8.84 5.87,-8.73 12.48,-8.14 20.62,-4.06 -2.07,1.55 2.53,0.39 -4.02,2.32 -10.05,2.95 -9.45,-5.51 -18.51,10.59zm-1.85 -8.02c-0.84,7.06 0.89,10.91 1.8,15.51 6.96,2.54 11.61,4.01 18.62,-1.04 4.96,-3.58 10.44,-6.61 8.57,-16.23 -4.4,-6.05 -6.34,-7.83 -15.54,-8.29 -8.06,1.75 -9.52,4.76 -13.45,10.06z"/>
   <path class="fil7" d="M2175.12 1032.65c-0.42,-10.4 9.04,-12.2 18.61,-11.27 -0.33,0.37 -0.71,0.84 -1,1.11 -9.96,9 -14.46,3.06 -17.61,10.16zm4.28 11.15c9.28,0.77 14.91,0.23 21.63,-3.21 0.79,-8.48 -0.27,-10.72 -3.32,-17.58 -5.67,-6.5 -15.74,-5.3 -21.89,0.46 -8.65,8.1 -0.99,16.37 3.57,20.33z"/>
   <path class="fil9" d="M2133.04 1058.53c3.23,-8.86 13.15,-5.94 16.65,5.49l-16.65 -5.49zm-2.09 -2.48c-5.22,18.97 7.82,28.37 24.8,20.46 5.42,-9.92 -2.46,-14.41 -7.09,-19.3 -5.24,-5.53 -12.52,-11.13 -17.72,-1.15z"/>
   <path class="fil9" d="M2253.51 1058.44c-1.9,-10.31 8.02,-15.27 16.74,-12.92 -1.59,12.61 -8.21,0.24 -16.74,12.92zm-3.22 0.98c2.57,2.68 5.77,8.84 15.72,9.22 9.34,0.35 12,-5.58 11.68,-14.33l-7.14 -11.31c-13.25,-2.92 -19.88,5.01 -20.25,16.43z"/>
   <path class="fil8" d="M2252.42 1115.5c0.9,-0.46 3.14,-1.01 4.33,-1.19 8.76,-1.33 8.29,2.88 8.72,3.55 -0.39,0.26 -0.82,0.6 -1.18,0.73l-3.94 1.07c-4.15,0.55 -8.16,1.26 -11.56,-0.4 0.95,-1.54 -1.15,-1.33 3.62,-3.76zm-10.05 14.5c3.67,7.08 8.7,7.52 17.25,2.65 5.39,-3.06 9.74,-6.26 10.42,-14.05 -7.72,-14.48 -28.67,-5.03 -27.68,11.4z"/>
   <path class="fil7" d="M2174.74 1117.58c1.9,-5.9 7.68,-7.38 9.56,0.32l-9.56 -0.32zm-1.4 -3.57c-7.92,19.59 27.65,27.33 24.74,10.6 -6.91,-4.69 -6.1,-4.28 -10.8,-9.95 -5.51,-6.64 -7.96,-5.2 -13.93,-0.64z"/>
   <path class="fil7" d="M2253.55 939.64c0.58,-7.41 3.56,-7.85 11.23,-7.85 -2.52,2.93 -1.9,1.26 -5.12,4.64 -3.24,3.4 0.74,3.02 -6.11,3.21zm0.8 -8.05c-1.86,2.94 -3.16,3.83 -3.14,8.3 3.11,3.1 14.45,8.45 18.68,9.37 7.49,-0.39 6.16,-9.18 2.53,-14.44 -3.82,-5.55 -10.55,-6.08 -18.07,-3.23z"/>
   <path class="fil9" d="M2321.2 1044.59c-1.19,-6.96 -0.34,-5.26 1.5,-11.18 3.33,-10.74 0.85,-5.44 4.01,-8.33 5.27,1.17 2.93,-0.23 6.54,3.8l-6.99 2.09c-1.27,4.27 -2.39,10.43 -5.06,13.62zm0.55 3.75c7.65,-0.42 10.5,-1.89 13.37,-8.2 3.91,-8.59 2,-12.65 -3.08,-16.61l-8.03 -0.34c-4.34,7.34 -8.07,19.24 -2.26,25.14z"/>
   <path class="fil10" d="M2315.86 964.81c-7.36,-10.24 -14.51,-15.05 -23.12,-22.01 -3.11,-2.51 -5.82,-4.37 -10.14,-5.62 -7.04,-0.99 -1.25,-0.53 -2.73,1.29 4.69,4.29 1.97,3.27 8.64,7.19 1.71,1 2.45,1.37 4.4,2.61 4.59,2.92 1.16,0.25 4.71,3.79 11.9,11.9 6.04,10.01 16.38,16.21 3.6,-1.95 0.85,1.39 1.86,-3.47z"/>
   <path class="fil11" d="M2282.91 1106.26c5.65,-0.61 3.8,1.32 4.31,1.7 -0.72,0.77 -1.21,2.54 -4.42,2.86 -3.83,0.39 -3.11,-0.93 -3.9,-1.45 0.15,-2.03 1.17,-2.81 4.01,-3.11zm-4.67 12.82c11.39,2.33 12.48,-1.93 12.76,-12.02 -3.62,-2.53 -8.07,-7.24 -13.92,-0.62 -4.43,5.02 -1.49,9.98 1.17,12.64z"/>
   <path class="fil12" d="M2275.45 1001.67c1.34,3.57 -0.21,1.88 2.59,3.99 0.83,0.63 4.11,1.49 5.17,1.62 4.29,0.56 8.07,-0.42 11.53,-1.14 4.69,-5.14 6.68,-3.36 8.93,-11.87 1.5,-5.08 0.96,-4.06 0.5,-9.22 -0,-0.02 -0.66,-5.04 -0.67,-5.05 -1.53,-4.02 -0.26,-1.56 -3.06,-3.92 0.02,10.08 2.48,16.58 -3.88,22.64 -6.23,5.93 -12.6,5.49 -21.11,2.95z"/>
   <path class="fil13" d="M2157.65 979.8c4.03,4.28 6.4,9.85 17.76,5.15 4.2,-1.74 12.7,-10.69 13.26,-12.71 0.79,-2.83 0.85,-2.22 -0.1,-5.19 -1.32,-4.11 -2.19,-3.3 -3.73,-4.53 1.86,9.62 -3.61,12.66 -8.57,16.23 -7.01,5.05 -11.66,3.58 -18.62,1.04z"/>
   <path class="fil13" d="M2179.4 1043.8c1.07,3.05 -2.82,2.66 5.25,4.04 2.61,0.45 5.1,-0.05 7.7,-0.36 5.08,1.1 7.67,-0.33 11.51,-3.06 2.23,-7.67 2.21,-17.5 -6.14,-21.4 3.04,6.86 4.11,9.1 3.32,17.58 -6.72,3.44 -12.35,3.98 -21.63,3.21z"/>
   <path class="fil11" d="M2151.56 989.25c4.27,0.16 3.76,2.27 4.54,4.56l-9.33 1.71c0.68,-4.17 0.14,-6.44 4.79,-6.27zm-7.72 13.36c11.31,1.42 21.05,-6.17 13.43,-13.32 -7.92,-7.43 -16.21,2.86 -13.43,13.32z"/>
   <path class="fil14" d="M2250.29 1059.42c1.57,9.28 9.1,13.88 18.46,13.1 4.51,-0.37 8.37,-2.05 10.04,-5.43 0.84,-1.69 1.13,-3.44 1.14,-5.52l-2.24 -7.27c0.33,8.75 -2.34,14.69 -11.68,14.33 -9.95,-0.38 -13.14,-6.54 -15.72,-9.22z"/>
   <path class="fil15" d="M2273.41 990.98c4.92,-4.17 4.6,-7.83 8.12,-11.54 3.89,-4.11 9.96,-0.91 14.72,-4.25 -3.96,-5.36 -8.33,-4.69 -15.62,-2.09 -1.61,2.96 -1.19,5.36 -3.09,9.37 -1.8,3.8 -3.3,3.69 -4.13,8.5z"/>
   <path class="fil16" d="M2157.7 972.31c9.06,-16.09 8.46,-7.64 18.51,-10.59 6.55,-1.92 1.95,-0.77 4.02,-2.32 -8.14,-4.08 -14.76,-4.67 -20.62,4.06 -2.99,4.45 -2.06,3.3 -1.9,8.84z"/>
   <path class="fil17" d="M2123.91 1013.84c-2.37,8.69 -2.64,10.46 0.82,18.71 3.79,-3.47 2.72,-2.59 3.05,-9.24 0.83,-16.67 0.41,-13.71 -3.31,-14.63l-0.56 5.16z"/>
   <path class="fil18" d="M2253.51 1058.44c8.53,-12.68 15.16,-0.31 16.74,-12.92 -8.73,-2.35 -18.65,2.6 -16.74,12.92z"/>
   <path class="fil18" d="M2133.04 1058.53l16.65 5.49c-3.5,-11.43 -13.42,-14.35 -16.65,-5.49z"/>
   <path class="fil10" d="M2294.74 1006.15l0.6 2.42c8.75,-0.13 11.76,-6.05 11.57,-9.76 -0.32,-6.46 -0.12,-3.14 -3.25,-4.52 -2.25,8.51 -4.23,6.73 -8.93,11.87z"/>
   <path class="fil19" d="M2175.12 1032.65c3.14,-7.1 7.64,-1.16 17.61,-10.16 0.3,-0.27 0.67,-0.74 1,-1.11 -9.57,-0.93 -19.03,0.87 -18.61,11.27z"/>
   <path class="fil20" d="M2226.75 1084.23l5.9 -3.54c5.84,-2.23 5.12,-7.24 -1.74,-6.47 -3.79,0.43 -6.09,4.34 -7.73,7.34l3.57 2.68z"/>
   <path class="fil19" d="M2248.79 1119.27c3.4,1.66 7.41,0.94 11.56,0.4l3.94 -1.07c0.36,-0.13 0.79,-0.48 1.18,-0.73 -0.43,-0.67 0.03,-4.88 -8.72,-3.55 -1.19,0.18 -3.42,0.74 -4.33,1.19 -4.78,2.44 -2.68,2.22 -3.62,3.76z"/>
   <path class="fil21" d="M2295.64 1083.69c3.65,-1.09 10.19,-8.71 11.36,-10.98 -11.45,-3.72 -12.8,7.59 -11.36,10.98z"/>
   <path class="fil16" d="M2321.2 1044.59c2.67,-3.19 3.79,-9.35 5.06,-13.62l6.99 -2.09c-3.61,-4.03 -1.28,-2.63 -6.54,-3.8 -3.16,2.9 -0.67,-2.41 -4.01,8.33 -1.84,5.92 -2.69,4.21 -1.5,11.18z"/>
   <path class="fil10" d="M2206.42 952.79c4.07,-0.69 7.77,-2.34 11.09,-5.83 -3.98,-3.51 -12.02,-5.02 -11.09,5.83z"/>
   <path class="fil20" d="M2239 1011.92c4.9,3.23 6.04,2.03 9.28,-0.85 1.97,-9.11 -7.89,-5.81 -9.28,0.85z"/>
   <path class="fil22" d="M2192.35 1047.47c1.41,5.22 -1.34,2.66 3.18,4.33 1.48,0.55 3.91,0.06 5.07,-0.3 0.98,-0.31 3.1,-1.44 3.76,-2.43 3.05,-4.59 -0.28,-4.42 -0.51,-4.66 -3.84,2.73 -6.42,4.15 -11.51,3.06z"/>
   <path class="fil10" d="M2246.04 961.08c1.55,5.02 -3.43,1.72 4.56,4.09 3.05,0.9 4.1,0.95 6.65,1.17 -0.08,-6.52 -4.86,-8.99 -11.21,-5.26z"/>
   <path class="fil23" d="M2193.76 1097.81c0.72,-7.05 -3.39,-9.26 -9.6,-5.38 1.79,2.1 -4.13,0.92 4.2,4.07 1.85,0.7 3.09,0.95 5.4,1.31z"/>
   <path class="fil10" d="M2226.75 1084.23c-2.23,2.31 -1.22,1.18 -2.9,4.94 4.37,0.28 6.5,-0.63 9.48,-2.61 0.54,-5.35 0.97,-2.03 -0.68,-5.87l-5.9 3.54z"/>
   <path class="fil10" d="M2146.24 1036.85c2.42,-2.78 5.4,-5.61 3.92,-9.86l-5.66 -0.2c-0.78,4.94 -0.18,6.95 1.74,10.06z"/>
   <path class="fil16" d="M2253.55 939.64c6.85,-0.2 2.88,0.18 6.11,-3.21 3.22,-3.38 2.6,-1.71 5.12,-4.64 -7.67,-0 -10.65,0.44 -11.23,7.85z"/>
   <path class="fil18" d="M2146.77 995.52l9.33 -1.71c-0.77,-2.29 -0.26,-4.4 -4.54,-4.56 -4.65,-0.17 -4.11,2.1 -4.79,6.27z"/>
   <path class="fil18" d="M2174.74 1117.58l9.56 0.32c-1.88,-7.7 -7.67,-6.23 -9.56,-0.32z"/>
   <path class="fil21" d="M2228.5 1000.04c-0.09,2.21 -1.24,3.42 2.66,4.27 4.53,0.99 3.53,-2.36 3.88,-3.68 -1.82,-1.17 2.13,-1.28 -3.11,-1.44 -6.5,-0.19 -0.85,-0.17 -3.43,0.85z"/>
   <path class="fil15" d="M2278.9 1109.38c0.79,0.52 0.07,1.84 3.9,1.45 3.21,-0.32 3.69,-2.09 4.42,-2.86 -0.51,-0.38 1.35,-2.31 -4.31,-1.7 -2.83,0.31 -3.86,1.08 -4.01,3.11z"/>
  </g>
  <g id="_2801475076416">
   <path class="fil3" d="M1912.27 382.77c-0.32,-20.63 6.5,-27.37 25.62,-27.49 -1.81,10.7 -1.34,6.34 -9.58,14.59 -9.41,9.43 -4.14,9.29 -16.04,12.89zm-101.69 -57.05c4.55,-19.61 10.35,-35.06 33.61,-36.07 17.71,-0.77 28.64,18.93 30.47,35.73 24.31,28.56 -52.09,55.6 -64.08,0.34zm-116.36 -82c14.88,12.5 21.87,33.98 12.05,50.37 9.25,4.39 5.05,-4.6 3.94,6.44 -1.34,13.4 -25.77,10.68 -25.79,10.67 -0.7,-0.57 -1.26,-2.76 -1.38,-2.34l-1.87 -7.87c-20.61,4.23 -24.31,-1.11 -36.49,-12.34 -5.8,-13.21 -12.4,-31.79 3.24,-43.97 25.39,-19.78 34.71,-2.46 46.3,-0.96zm-120.82 24.36l3.37 -14.62 9.97 -0.52 -0.53 19.33 -12.81 -4.18zm213.52 -43.67c-0.28,-3.48 -5.77,-13.92 11.28,-17.08 14.63,-2.72 16.98,19.15 -11.28,17.08zm-25.49 -28.24c0.59,-0.56 5.1,-7.78 11.67,-4.83 13.51,6.05 1.26,12.44 1.16,12.6 -9.97,0.94 -8.05,-1.27 -12.83,-7.77zm-166.75 3.25c-12.32,13.81 -28.41,0.38 -28.86,-0.24 -4.65,-14.57 2.16,-21.11 6.28,-33.73l12.8 -0.57c26.28,1.8 32.38,22.1 9.79,34.54zm116.53 -114.95c3.85,-14.22 13.03,-17.76 26.58,-10.99 -2.73,7.07 -4.76,7.24 -12.42,11.41 -9.96,5.42 -2.99,7.35 -14.16,-0.42zm-82.61 7.25c22.95,0.3 26.49,5.5 36.53,17.45 5.12,3.37 3.6,-4.53 8.49,9.76 8.65,25.3 -50.14,68.21 -69.07,29.57 -3.15,-10.42 -6.52,-20.03 -3.7,-34.78 -12.3,-1.3 -16.91,8.52 -22.84,16.69 -5.98,8.24 -9.87,14.67 -15.06,23.05 -11.01,17.76 -14.05,32.96 -19.15,38.04 -9.09,9.06 -5.94,1.7 -7.06,-0.84 -6.8,8.23 -1.15,0.3 -4.33,11.05 -2.33,7.87 -2.27,9.19 -5.84,18.15 22.19,7.48 31.63,18.58 37.25,47.46l9.58 0.78c33.26,23.35 24.07,4.9 44.95,48.54 7.34,15.34 14.93,8.68 26.04,21.46 4.67,5.37 12.26,19.87 13.7,30.71 32.16,-7.58 33.28,-11.3 67.24,-0.58 25.36,8 40.48,-8.73 61.79,14.21 5.04,5.42 4.75,7.8 9.17,13.08 14.9,17.79 37.73,6.27 47.08,48.34 3.06,13.79 1.4,20.35 13.23,21.74l12.38 4.12c3.47,-5.65 2.05,-2.77 2.77,-10.44 -5.68,-15.74 -5.92,-17.93 5.75,-31.33l20.34 -0.88c4.37,6.17 0.46,0.97 4.61,6.78 1.08,0.4 19.64,18.55 37.82,-10.81l45.49 -78.14c13.71,-34.39 -4.95,-26.54 -13.95,-43.21 -12.95,-14.39 -3.23,-38.25 5.33,-53.86l19.33 -2.46 5.77 -0.37 0.38 -10.82c-24.29,6.19 -23.55,6.13 -47.64,-0.21 -17.22,-4.53 -39.11,2.84 -66.68,-16.12 -8.95,-6.15 -6.42,-7.37 -12.82,-12.39 -22.61,-17.74 -39.27,7.68 -59.06,-49.46 -5.13,-14.8 -14.83,-17.7 -22.05,-31.11 -11.42,-21.19 -4.62,-26.43 -3.71,-46.98 0.51,-11.4 -8.59,-21.2 -7.99,-42.14 -6.94,3.86 -138.84,21.96 -154.1,55.95z"/>
   <path class="fil5" d="M1840.8 470.4c13.17,3.78 12.76,8.5 16.18,22.5 -9.35,-5.61 -14.02,-5.77 -21.61,-12.36 2.09,-11.01 0.32,-5.71 5.43,-10.14zm-9.34 -1.59c-15.43,-7.24 -2.06,-6.17 -17.06,-24.81 -9.31,-11.57 -16.25,-10.37 -24.15,-19.06 6.46,-19.6 22.85,-9.82 31.93,-1.53 12.5,11.41 16.04,27.66 9.28,45.4zm-99.35 -76.13c8.03,-30.61 71.2,-9.12 51.1,22.9 -9.09,-4.75 -10.75,-9.38 -21.09,-14.89 -11.31,-6.02 -19.26,-3.64 -30.01,-8.01zm-74.83 -0.98c1.06,-10.42 1.15,-17.28 28.22,-19.97 16.78,-1.67 30.23,-0.78 38.96,9.89l-3.38 8.73c-8.77,1.02 -19.13,-3.27 -29.82,-3.5 -15.57,-0.34 -20.54,2.97 -33.98,4.84zm-51.58 -53.47c17.64,-17.1 49.25,16.91 43.06,47.09 -6.47,-2.04 0.39,2.03 -4.86,-2.77 -8.64,-7.89 -8.07,-15.62 -27.03,-29.63 -19.75,-14.61 -4.92,-0.67 -11.16,-14.69zm-49.59 -56.44c24.64,-15.07 55.27,25.12 50.78,39.99 -4.29,14.22 -1.47,4.4 -8.68,8.29 -4.73,-35.66 -32.63,-37.04 -42.09,-48.28zm-23.66 -49.94c14.71,6.3 27.32,29.83 16.23,43.61 -6.63,-9.19 -2.78,-8.74 -6.59,-22.06 -2.36,-8.24 -6.17,-14.17 -9.63,-21.55zm427.92 -16.83c4.2,-1.37 27.89,5.44 40.7,6.56 -9.33,8.09 -51.45,12.65 -40.7,-6.56zm-72.79 -28.1c19.47,4.24 9.64,9.04 28.28,16.18 12.73,4.88 27.22,3.05 35.1,8.93 -8.9,25.68 -55.97,1.09 -63.65,-6.17 -8.67,-8.19 -4.87,-11.23 0.28,-18.93zm-61.47 -37.04c6.25,-8.12 4.08,-6.81 15.65,-11.4 2.24,10.73 7.37,21.31 13.46,26.85 11.78,10.72 22.16,4.63 24.14,22.34 -31.92,13.26 -47.19,-11.32 -53.26,-37.79zm-12.45 -78.91c1.91,11.75 0.62,21.07 5.26,32.29 6.24,15.1 10.35,9.52 14.7,26.36l-11.57 10.46c-23.23,-8.55 -36.29,-53.81 -8.39,-69.12zm-20.87 -35.85c7.15,4.87 16.24,18.09 18.59,24.77l-13.65 7.98c-3.18,-11.87 -7.1,-18.53 -4.94,-32.76zm-10.1 0.65c-0.61,20.93 8.5,30.73 7.99,42.14 -0.92,20.55 -7.71,25.79 3.71,46.98 7.23,13.41 16.93,16.32 22.05,31.11 19.8,57.14 36.45,31.73 59.06,49.46 6.4,5.02 3.87,6.23 12.82,12.39 27.56,18.95 49.46,11.59 66.68,16.12 24.09,6.33 23.35,6.4 47.64,0.21 8.14,-5.59 10.24,-8.91 17.89,-12.57 9,46.48 11.92,50.36 1.36,99.32 -12.2,56.58 -87.45,178.86 -152.39,184.48l-12.9 -39.8c-11.83,-1.39 -10.17,-7.95 -13.23,-21.74 -9.35,-42.07 -32.18,-30.55 -47.08,-48.34 -4.42,-5.28 -4.14,-7.66 -9.17,-13.08 -21.31,-22.94 -36.43,-6.21 -61.79,-14.21 -33.97,-10.72 -35.08,-7 -67.24,0.58 -1.44,-10.84 -9.03,-25.34 -13.7,-30.71 -11.11,-12.79 -18.7,-6.12 -26.04,-21.46 -20.88,-43.64 -11.69,-25.18 -44.95,-48.54l-9.58 -0.78c-5.62,-28.88 -15.06,-39.97 -37.25,-47.46l-12.64 -7.73c-3.2,-59.94 49.99,-108.29 90.94,-143.56 35.14,-30.27 115.37,-66 181.52,-55.76 2.23,3.98 3.98,-2.44 0.03,6.1l-3.72 16.87zm35.27 447.68l12.19 8.22c28.82,13.78 14.97,10.18 28.8,27.33 23.65,0.51 72.55,-31.13 84.13,-42.49l54.44 -72.45c37.81,-58.37 53.81,-127.29 27.88,-199.19 -18.13,-0.57 -30.18,9.52 -49.51,1.29 -36.82,-15.68 -9.91,-4.77 -43.56,-9.88 -21.2,-3.22 -22.4,-11.14 -33.6,-20.6 -12.14,-10.25 -22.96,-6.41 -36.29,-20.75 -13.29,-14.29 -6.98,-21.67 -18.82,-35.01 -38.61,-43.5 1.08,-47.16 -26.89,-74.56 -14.02,-13.73 -11.67,-19.36 -16.7,-40.73 -38.19,-10.69 -82.35,-0.94 -119.35,9.47 -40.66,11.44 -63.6,28.94 -90,49.72 -13.75,10.83 -60.01,58.48 -67.63,71.93 -8.05,14.21 -13.24,33.65 -18.32,51.6 -11.4,40.24 -1.22,28.4 14.95,47.27 17.31,20.21 10.73,41.99 17.76,52.03 7,9.99 30.06,8.23 43.06,26.6 17.34,24.51 -5.37,24.8 25.21,44.65 8.19,5.32 12.38,8.67 18.35,16.38 6.39,8.25 7.59,14.48 13.06,21.78 14.06,18.77 29.95,0.93 54.18,1.41 15.52,0.31 18.86,4.79 29.47,7.26 11.61,2.7 18.81,0.09 30.93,3.96 26.5,8.44 3.8,11.81 39.1,30.39 23.94,12.6 17.95,20.93 27.14,44.36z"/>
   <path class="fil4" d="M2002.65 234.16l-0.38 10.82 -5.77 0.37c9,15.94 16.17,16.23 5.64,39.78 -5.39,12.07 -12.46,18.86 -30.3,16.54 9,16.67 27.66,8.82 13.95,43.21l-45.49 78.14c-18.18,29.36 -36.73,11.21 -37.82,10.81 0.75,12.62 -0.05,17.31 -3.71,26.57 -11.8,2.61 -16.51,3.1 -27,-1.14 -0.72,7.67 0.7,4.79 -2.77,10.44l-12.38 -4.12 12.9 39.8c64.94,-5.62 140.18,-127.9 152.39,-184.48 10.56,-48.96 7.64,-52.84 -1.36,-99.32 -7.65,3.67 -9.75,6.98 -17.89,12.57z"/>
   <path class="fil22" d="M1536.74 190.65c1.13,2.55 -2.03,9.91 7.06,0.84 5.09,-5.08 8.13,-20.27 19.15,-38.04 5.19,-8.38 9.08,-14.81 15.06,-23.05 5.93,-8.17 10.54,-17.99 22.84,-16.69 6.41,-10.72 12.79,-18.16 27.75,-22 15.25,-33.99 147.16,-52.1 154.1,-55.95l3.72 -16.87c-65.63,-0.28 -118.73,17.39 -161.06,47.91 -16.3,11.74 -43.56,36.09 -53.87,50.72 -11.31,16.05 -33.62,48.78 -34.74,73.14z"/>
   <path class="fil24" d="M1526.57 219.85c3.58,-8.96 3.52,-10.28 5.84,-18.15 3.18,-10.75 -2.47,-2.82 4.33,-11.05 1.12,-24.35 23.43,-57.09 34.74,-73.14 10.31,-14.63 37.57,-38.97 53.87,-50.72 42.34,-30.52 95.43,-48.19 161.06,-47.91 3.95,-8.53 2.2,-2.12 -0.03,-6.1 -66.15,-10.24 -146.37,25.49 -181.52,55.76 -40.95,35.27 -94.14,83.62 -90.94,143.56l12.64 7.73z"/>
   <path class="fil8" d="M1603.93 125.85c5.41,-21.8 26.84,-40.84 49.31,-21.59 -0.65,0.38 -1.54,0.93 -1.97,1.11 -0.43,0.19 -1.48,0.83 -2.03,1.04 -0.77,0.29 -3.5,1.29 -4.47,1.52 -29.35,6.97 -14.19,-9.04 -35.94,13.54 -0.56,0.59 -1.95,2.79 -2.38,2.15 -0.45,-0.67 -1.65,1.51 -2.52,2.22zm-3.08 -12.13c-2.81,14.75 0.56,24.36 3.7,34.78 14.1,5.02 26.4,8.25 40.54,-1.64 12.47,-8.72 23.86,-14.2 20.03,-37.69 -10.04,-11.95 -13.58,-17.14 -36.53,-17.45 -14.96,3.84 -21.34,11.28 -27.75,22z"/>
   <path class="fil7" d="M1643.04 266.41c2.82,-20.2 20.82,-28.87 41.38,-21.33 -14.78,8.9 -31.4,11.6 -41.38,21.33zm1.64 22.26c17.88,5.24 37.2,8.31 53.97,-2.74 8.72,-13.24 0.15,-26.51 -4.42,-42.19 -11.59,-1.49 -20.91,-18.82 -46.3,0.96 -15.64,12.18 -9.04,30.76 -3.24,43.97z"/>
   <path class="fil7" d="M1818.92 326.18c-3.55,-20.9 15.49,-38.61 36.88,-28.59 0.44,18.32 -4.23,11.41 -20.71,14.09 -15.2,2.47 -9.74,4.67 -16.17,14.5zm-8.34 -0.46c0.66,0.56 1.64,0.59 1.93,1.76 0.28,1.14 1.48,1.32 1.87,1.73l9.47 10.26c6.1,5.46 11.92,8.11 19.83,8.85 19.49,1.81 27.35,-7.27 30.98,-22.94 -1.83,-16.8 -12.75,-36.49 -30.47,-35.73 -23.25,1.01 -29.06,16.46 -33.61,36.07z"/>
   <path class="fil8" d="M1983.43 252.28c8.85,-0.74 10.33,1.48 14.25,7.73l-15.61 4.6 -8 28.12c-7.13,-11.76 3.52,-34.97 9.36,-40.44zm-11.59 49.39c17.84,2.33 24.9,-4.47 30.3,-16.54 10.53,-23.55 3.37,-23.84 -5.64,-39.78l-19.33 2.46c-8.57,15.61 -18.28,39.47 -5.33,53.86z"/>
   <path class="fil25" d="M1526.64 402.19c4.65,-5.22 9.04,-11.15 18.42,-12.44 -1.48,6.87 -1.51,8.39 -6.54,12.14 -9.88,7.36 -8.06,2.4 -11.88,0.3zm-12.82 -33.73c11.05,2.45 14.04,6.29 21.52,11.5 -3.79,8.41 -7.01,11.86 -15.19,15.92 -10.51,-7.71 -16.08,-13.61 -6.33,-27.41zm38.86 27.39c-1.74,-18.47 -22.2,-36.57 -41.48,-37 -17.17,17.32 -14.9,28.06 1.93,44.07 15.66,14.91 29.65,14.97 39.56,-7.07z"/>
   <path class="fil24" d="M1855.23 165.33c-6.09,-5.54 -11.23,-16.12 -13.46,-26.85 -11.57,4.59 -9.4,3.28 -15.65,11.4 6.06,26.47 21.34,51.05 53.26,37.79 -1.98,-17.7 -12.36,-11.61 -24.14,-22.34z"/>
   <path class="fil24" d="M1813.67 70.96c-27.89,15.3 -14.84,60.57 8.39,69.12l11.57 -10.46c-4.35,-16.84 -8.46,-11.26 -14.7,-26.36 -4.64,-11.22 -3.35,-20.54 -5.26,-32.29z"/>
   <path class="fil24" d="M1950.96 212.02c-7.88,-5.88 -22.37,-4.05 -35.1,-8.93 -18.63,-7.14 -8.8,-11.94 -28.28,-16.18 -5.16,7.7 -8.95,10.74 -0.28,18.93 7.68,7.27 54.75,31.85 63.65,6.17z"/>
   <path class="fil26" d="M1790.25 424.94c7.91,8.69 14.84,7.49 24.15,19.06 15,18.64 1.62,17.58 17.06,24.81 6.76,-17.75 3.22,-34 -9.28,-45.4 -9.09,-8.29 -25.47,-18.07 -31.93,1.53z"/>
   <path class="fil26" d="M1732.11 392.68c10.75,4.37 18.7,1.99 30.01,8.01 10.34,5.5 12,10.13 21.09,14.89 20.1,-32.02 -43.07,-53.5 -51.1,-22.9z"/>
   <path class="fil24" d="M1657.29 391.7c13.43,-1.87 18.41,-5.19 33.98,-4.84 10.7,0.23 21.05,4.52 29.82,3.5l3.38 -8.73c-8.73,-10.67 -22.18,-11.56 -38.96,-9.89 -27.07,2.69 -27.16,9.54 -28.22,19.97z"/>
   <path class="fil24" d="M1643.9 382.55c5.25,4.8 -1.61,0.73 4.86,2.77 6.19,-30.18 -25.41,-64.19 -43.06,-47.09 6.24,14.02 -8.59,0.08 11.16,14.69 18.96,14.02 18.39,21.74 27.03,29.63z"/>
   <path class="fil25" d="M1989 144.67c-21.05,-0.38 -24.02,-14 -12.45,-28.33 11.56,4.53 13.25,14.02 12.45,28.33zm-9.28 -37.1c-30.73,6.8 -19.84,44.79 0.47,46.97 29.44,3.15 20.15,-37.21 -0.47,-46.97z"/>
   <path class="fil25" d="M1764.2 486.39c18.74,-0.01 20.54,-0.6 21.72,17.03 -12.81,2.33 -22.3,-1.32 -30.04,-6.93 2.4,-4.88 5.09,-6.83 8.33,-10.1zm-16.23 14.05c10.44,11.18 25.99,18.22 43.6,8.46 11.35,-39.03 -45,-45.36 -43.6,-8.46z"/>
   <path class="fil13" d="M1604.56 148.5c18.93,38.65 77.71,-4.27 69.07,-29.57 -4.89,-14.3 -3.37,-6.4 -8.49,-9.76 3.83,23.49 -7.56,28.97 -20.03,37.69 -14.14,9.89 -26.44,6.66 -40.54,1.64z"/>
   <path class="fil9" d="M1875.64 441.22c4.6,-3.68 -4.53,-9.02 19.25,-8.72 -4.71,12.14 -6.29,12.5 -19.25,8.72zm-3.87 18.05c10.49,4.23 15.2,3.75 27,1.14 3.66,-9.26 4.45,-13.95 3.71,-26.57 -4.15,-5.81 -0.24,-0.61 -4.61,-6.78l-20.34 0.88c-11.67,13.4 -11.43,15.59 -5.75,31.33z"/>
   <path class="fil13" d="M1644.68 288.66c12.18,11.23 15.88,16.57 36.49,12.34 11.08,1.95 17.1,-0.68 25.1,-6.91 9.83,-16.39 2.84,-37.87 -12.05,-50.37 4.58,15.68 13.14,28.95 4.42,42.19 -16.77,11.06 -36.09,7.99 -53.97,2.74z"/>
   <path class="fil24" d="M1606.89 321.78c4.49,-14.87 -26.14,-55.06 -50.78,-39.99 9.46,11.24 37.36,12.62 42.09,48.28 7.21,-3.89 4.39,5.93 8.68,-8.29z"/>
   <path class="fil11" d="M1580.06 180.33c4.09,-13.26 16.46,-15.69 20.9,-0.58 -4.57,2.17 -2.99,2.72 -11.15,2.9 -13.54,0.3 -6.42,-0.72 -9.75,-2.32zm14.62 19.1c22.59,-12.44 16.49,-32.75 -9.79,-34.54 -6.61,9.1 -15.55,19.78 -10.82,34.12l20.6 0.42z"/>
   <path class="fil27" d="M1874.66 325.38c-3.63,15.67 -11.49,24.74 -30.98,22.94 -7.91,-0.73 -13.73,-3.39 -19.83,-8.85l-9.47 -10.26c-0.39,-0.4 -1.59,-0.59 -1.87,-1.73 -0.29,-1.17 -1.27,-1.19 -1.93,-1.76 11.98,55.26 88.39,28.21 64.08,-0.34z"/>
   <path class="fil28" d="M1697.98 443.39c-6.18,9.22 -7.42,10.57 -18.1,2.14 0.09,-0.45 6.78,-8.34 18.1,-2.14zm-26.05 -3.17c0.19,10.71 3.01,11.95 9.49,18.39 16.74,1.24 23.38,-3.49 24.92,-18.39 -9.72,-11.57 -23.01,-12.6 -34.41,0z"/>
   <path class="fil29" d="M1903.45 45.85c-10.18,0.34 -6.46,-2.38 -9.21,-8.19 3.02,-2.63 13.05,-2.67 18.26,0.03 -1.8,3.29 -0.13,7.86 -9.05,8.15zm-17.94 -8.15c4.04,13.78 8.38,16.17 25.64,15.92 28.24,-34.47 -16.05,-32.64 -25.64,-15.92z"/>
   <path class="fil15" d="M1818.92 326.18c6.43,-9.83 0.97,-12.02 16.17,-14.5 16.48,-2.68 21.15,4.23 20.71,-14.09 -21.38,-10.02 -40.43,7.69 -36.88,28.59z"/>
   <path class="fil15" d="M1603.93 125.85c0.87,-0.71 2.07,-2.89 2.52,-2.22 0.43,0.64 1.82,-1.57 2.38,-2.15 21.74,-22.57 6.59,-6.56 35.94,-13.54 0.97,-0.23 3.7,-1.23 4.47,-1.52 0.55,-0.21 1.6,-0.85 2.03,-1.04 0.43,-0.19 1.32,-0.73 1.97,-1.11 -22.47,-19.25 -43.91,-0.21 -49.31,21.59z"/>
   <path class="fil30" d="M1520.15 395.87c8.17,-4.06 11.4,-7.51 15.19,-15.92 -7.48,-5.2 -10.47,-9.04 -21.52,-11.5 -9.75,13.8 -4.18,19.7 6.33,27.41z"/>
   <path class="fil13" d="M1594.68 199.42l-20.6 -0.42c-4.73,-14.33 4.21,-25.02 10.82,-34.12l-12.8 0.57c-4.11,12.63 -10.93,19.16 -6.28,33.73 0.45,0.62 16.54,14.04 28.86,0.24z"/>
   <path class="fil31" d="M1755.88 496.49c7.74,5.62 17.24,9.26 30.04,6.93 -1.17,-17.63 -2.97,-17.04 -21.72,-17.03 -3.24,3.27 -5.93,5.22 -8.33,10.1z"/>
   <path class="fil32" d="M1989 144.67c0.81,-14.31 -0.89,-23.8 -12.45,-28.33 -11.58,14.34 -8.61,27.96 12.45,28.33z"/>
   <path class="fil24" d="M2001.07 221.58c-12.82,-1.13 -36.5,-7.93 -40.7,-6.56 -10.75,19.21 31.37,14.65 40.7,6.56z"/>
   <path class="fil21" d="M1912.27 382.77c11.9,-3.61 6.63,-3.47 16.04,-12.89 8.24,-8.25 7.77,-3.89 9.58,-14.59 -19.13,0.12 -25.95,6.85 -25.62,27.49z"/>
   <path class="fil15" d="M1643.04 266.41c9.99,-9.73 26.61,-12.43 41.38,-21.33 -20.57,-7.54 -38.56,1.14 -41.38,21.33z"/>
   <path class="fil24" d="M1792.8 35.11c-2.16,14.23 1.76,20.89 4.94,32.76l13.65 -7.98c-2.35,-6.68 -11.44,-19.9 -18.59,-24.77z"/>
   <path class="fil15" d="M1983.43 252.28c-5.84,5.47 -16.49,28.69 -9.36,40.44l8 -28.12 15.61 -4.6c-3.92,-6.25 -5.4,-8.47 -14.25,-7.73z"/>
   <path class="fil21" d="M1786.92 224.42c28.26,2.07 25.91,-19.8 11.28,-17.08 -17.04,3.16 -11.56,13.61 -11.28,17.08z"/>
   <path class="fil24" d="M1532.45 231.85c3.46,7.38 7.28,13.31 9.63,21.55 3.81,13.33 -0.03,12.88 6.59,22.06 11.09,-13.78 -1.52,-37.31 -16.23,-43.61z"/>
   <path class="fil10" d="M1711.21 84.47c11.17,7.77 4.19,5.84 14.16,0.42 7.66,-4.17 9.69,-4.34 12.42,-11.41 -13.55,-6.76 -22.73,-3.22 -26.58,10.99z"/>
   <path class="fil6" d="M1681.17 301.01l1.87 7.87c0.12,-0.42 0.68,1.77 1.38,2.34 0.02,0.01 24.46,2.73 25.79,-10.67 1.1,-11.04 5.3,-2.05 -3.94,-6.44 -8,6.22 -14.02,8.86 -25.1,6.91z"/>
   <path class="fil33" d="M1835.36 480.54c7.59,6.59 12.26,6.76 21.61,12.36 -3.42,-14.01 -3.01,-18.72 -16.18,-22.5 -5.12,4.43 -3.34,-0.87 -5.43,10.14z"/>
   <path class="fil34" d="M2006.43 96.38c12.78,-0.38 17.59,-11.33 9.7,-16.06 -13.65,-8.18 -16.67,6.73 -9.7,16.06z"/>
   <path class="fil19" d="M1580.06 180.33c3.33,1.6 -3.8,2.61 9.75,2.32 8.16,-0.18 6.58,-0.73 11.15,-2.9 -4.45,-15.11 -16.81,-12.67 -20.9,0.58z"/>
   <polygon class="fil10" points="1573.4,268.09 1586.21,272.27 1586.74,252.94 1576.77,253.47 "/>
   <path class="fil34" d="M1697.64 520.93c10.33,-6.18 10.04,-2.35 4.75,-15.71 -13.82,-0.45 -18.17,6.91 -4.75,15.71z"/>
   <path class="fil21" d="M1773.1 191.34c-6.57,-2.95 -11.08,4.27 -11.67,4.83 4.78,6.49 2.86,8.7 12.83,7.77 0.1,-0.16 12.35,-6.55 -1.16,-12.6z"/>
   <path class="fil35" d="M1894.24 37.66c2.75,5.81 -0.97,8.53 9.21,8.19 8.93,-0.3 7.26,-4.86 9.05,-8.15 -5.21,-2.71 -15.24,-2.67 -18.26,-0.03z"/>
   <path class="fil18" d="M1875.64 441.22c12.96,3.78 14.54,3.42 19.25,-8.72 -23.78,-0.29 -14.66,5.04 -19.25,8.72z"/>
   <path class="fil13" d="M1526.64 402.19c3.82,2.1 2,7.06 11.88,-0.3 5.03,-3.75 5.06,-5.26 6.54,-12.14 -9.38,1.28 -13.77,7.22 -18.42,12.44z"/>
   <path class="fil19" d="M1512.52 283.63l2.48 -11.98c-21.57,0.83 -15.21,11.33 -2.48,11.98z"/>
   <path class="fil31" d="M1679.88 445.53c10.68,8.43 11.92,7.09 18.1,-2.14 -11.32,-6.2 -18.01,1.69 -18.1,2.14z"/>
  </g>
  <g id="_2801524955440">
   <path class="fil3" d="M1965.97 1160.37c-3.63,-1.5 -1.75,-0.4 -2.55,-2.38 3.53,-2.41 5.51,-1.32 5.85,2.44 -1.8,0.72 -0.89,0.94 -3.3,-0.05zm22.03 -7.06c-2.13,-1.14 -1.11,0.38 -1.86,-1.82 1.28,-3.16 3.08,-4.55 7.05,-3.77 0.43,3.43 0.98,1.87 -1.31,3.83 0.14,4.42 -1.11,3.99 -5.38,4.44 1.03,-2.64 -0.72,-0.84 1.5,-2.68zm39.79 -0.34c-1.8,-3.72 2.02,-8.58 6.08,-6.35 -0.72,2.27 -3.53,5.29 -6.08,6.35zm-26.56 -14.34c1.25,-6.37 4.07,-10.65 11.7,-9.08 2.38,2.24 3.88,5.09 4.57,8.29 4.61,4.43 -2.25,9.18 -6.94,8.74 -2.65,-0.24 -4.72,-1.32 -6.28,-2.68 -2,-1.75 -2.55,-2.34 -3.06,-5.27zm-29.28 -19.72l2.36 0.57c0.24,4.72 2.08,4.71 1.2,10.2l0.57 2.22c-1.03,0.99 -1.71,2.55 -3.84,2.93 -2.58,0.45 -3.59,-0.13 -3.96,-2.44 -4.02,0.24 -6.39,0.55 -8.52,-2.89 -1.48,-2.05 -2.7,-2.48 -2.99,-5.7 -0.27,-3.08 1.07,-4.86 2.8,-6.18 4.59,-3.48 9.07,-3.12 12.38,1.29zm-31.07 7.15c-0.97,-4.57 -1.63,-5.88 3.18,-6.26 -0.03,3.87 -0.17,4.58 -3.18,6.26zm54.21 -14.36c0.58,-3.36 4.38,-4.76 5.31,-2.9 1.24,2.48 -1.88,4.77 -5.31,2.9zm33.36 -3.8c5.84,-4.31 1.76,-1.71 3.94,-4.37 1.62,-1.97 -0.52,-0.51 2.09,-1.05 -1.16,4 -2.4,9.08 -6.97,6.95l0.94 -1.53zm-79.2 -5.14c-4.16,7.66 -15.11,3.32 -6.17,-5.41 4.4,-0.06 6.08,0.69 6.17,5.41zm53.41 -21.5c2.43,0.72 2.47,1.78 3.38,4.17 -3.1,-0.38 -4.78,-0.62 -6.97,-2.17 0.47,-1.76 0.89,-2.8 3.58,-2zm-26.49 -3.57c-0.36,-5.95 3,-4.8 6.31,-4.17 -0.57,2.49 0.46,0.86 -2.59,2.69 -2.11,1.26 -0.77,1.02 -3.72,1.48zm-21.91 0.93c5.39,-0.23 7.32,1.23 9.74,4.55 1.08,1.05 1.49,0.94 2.03,3.04 1.29,5.09 -10.61,16.69 -17.76,6.91 -0.81,-4.16 -1.53,-5.48 -0.31,-10.65 -5.03,4.64 -5.37,3.63 -9.21,10.28 -1.35,2.34 -4.74,10.01 -6.65,12.12 -1.43,0.04 -0.43,0.82 -1.08,-1.15l-1.95 6.19c2.56,0.44 0.82,-0.62 2.27,0.99 0.01,0.01 0.22,9.95 -1.27,12.18 -2.87,-1.7 -1.98,-6.25 -1.46,-9.43 -1.1,1.7 -2.57,19.27 4.28,23.41 2.95,-5.71 7.13,-2.88 10.37,0.45 2.66,2.74 6.16,4.81 4.51,10.49 -1.64,4.56 -3.11,3.4 -6.72,5.32 -0.24,8.96 9.29,13.14 16.22,17.13 4.25,-3.34 5.63,-2.88 8.79,1.14 2.79,3.53 5.67,3.03 5.91,7.59 5.65,0.77 5.4,3.78 12.52,3.75 2.75,-0.01 4.1,-0.31 6.72,-1.12 3.26,-1 2.71,-1.42 5.85,-2.01 -0.86,-10.41 12.8,-14.71 15.66,-6.88 1.06,0.88 3.57,3.16 4.04,-0.2 -1.46,-4.32 -1.55,-4.45 1.58,-8.12 3.9,-0.54 4.43,-0.72 6.43,1.58 3.89,0.91 1.53,2.25 5.48,1.04 4.08,-1.25 5.93,-7.63 8.74,-11.54 3.68,-5.13 8,-10.59 7.88,-19.48 -2.17,-1.77 -3.35,-1.72 -5.5,-4.14 -0.68,-5.4 -0.18,-9.06 2.55,-13.65 3.47,-0.76 3.21,-0.92 6.09,0.84 0.3,-2.95 0.58,-6.04 0.09,-9.03 -1,-6.06 -0.51,-2.33 -4.55,-4.23 -9.15,-1.57 -4.18,-4.66 -15.14,-4.53 -1.41,4.29 -10.19,8.25 -14.87,3.6 -1.56,-1.55 -2.91,-4.91 -1.71,-7.91 1.7,-4.29 2.93,-1.07 3.13,-7.73 -3.18,-4.32 -5.67,-3.72 -7.11,-11.23 -0.62,-3.23 -0.06,-6.22 -0.98,-8.82 -0.64,-1.8 -1.87,-3.05 -2.75,-5.75l-2.82 -1.38c-0.63,4.03 1.7,1.34 -1.89,3.28 -1.82,0.98 -7.24,-0.67 -12.05,-0.23 -4.43,0.41 -8.91,1.97 -13.37,2.94 -6.96,1.51 -19,5.31 -21.72,10.39z"/>
   <path class="fil4" d="M2045.54 1105.98c4.04,1.9 3.54,-1.83 4.55,4.23 0.5,2.99 0.21,6.08 -0.09,9.03 2.17,3.5 1.74,6.21 -0.25,9.8 -1.87,3.38 -3.65,4 -8.39,3.01 2.15,2.42 3.33,2.37 5.5,4.14 0.12,8.89 -4.2,14.35 -7.88,19.48 -2.81,3.91 -4.66,10.29 -8.74,11.54 -3.95,1.21 -1.59,-0.13 -5.48,-1.04 0.37,7.14 -1.45,8.7 -8.01,6.53 -0.47,3.36 -2.97,1.08 -4.04,0.2 0.46,6.22 -10.98,13.92 -15.66,6.88 -3.14,0.6 -2.6,1.01 -5.85,2.01 -2.63,0.81 -3.97,1.11 -6.72,1.12 -7.12,0.03 -6.87,-2.99 -12.52,-3.75 -3.42,3.23 -6.57,3.4 -11.22,0.92 -3.98,-2.13 -5,-4.87 -3.49,-9.65 -6.93,-3.99 -16.46,-8.17 -16.22,-17.13 3.61,-1.91 5.08,-0.76 6.72,-5.32 -8.69,6.54 -17.69,0.43 -14.88,-10.94 -6.86,-4.14 -5.39,-21.71 -4.28,-23.41l0.46 -3.74 1.95 -6.19c1.03,-12.85 15.32,-26.86 26.07,-34.04 7.81,-5.21 12.39,-5.62 21.93,-8.1 4.27,-1.11 8.02,-2.16 12.8,-1.9 5.43,0.3 7.53,1.68 11.47,2.57l2.82 1.38c-2.1,-6.77 -17.11,-6.25 -23.12,-5.28 -19.14,3.09 -24.93,6.48 -38.49,17.43l-13.35 14.28c-7.31,11.01 -9.88,31.78 -6.96,46.33 1.69,8.43 4.27,18.48 10.36,24.44l9.58 10.74c1.58,1.57 2.32,1.82 3.92,3.38 3.14,3.06 8.12,7.26 11.98,9.16 23.7,11.66 44.63,7.46 66.19,-3.9 8.78,-4.62 20.33,-21.02 24.87,-31.1 6.74,-14.95 8.5,-28.33 1.16,-43.4l-6.71 0.3z"/>
   <path class="fil5" d="M2046.58 1102.37c1.92,0.83 1.4,0.23 2.3,1.72 -5.29,-0 -9.76,-1.79 -10.72,-6.26 4.13,0.8 0.89,1.29 8.43,4.54zm-16.17 -0.93c10.96,-0.13 5.99,2.97 15.14,4.53l6.71 -0.3c7.34,15.07 5.58,28.45 -1.16,43.4 -4.54,10.08 -16.09,26.48 -24.87,31.1 -21.56,11.35 -42.49,15.56 -66.19,3.9 -3.87,-1.9 -8.84,-6.1 -11.98,-9.16 -1.6,-1.56 -2.34,-1.81 -3.92,-3.38l-9.58 -10.74c-6.09,-5.96 -8.67,-16.01 -10.36,-24.44 -2.92,-14.56 -0.35,-35.32 6.96,-46.33l13.35 -14.28c13.55,-10.95 19.35,-14.34 38.49,-17.43 6,-0.97 21.01,-1.5 23.12,5.28 0.88,2.7 2.11,3.95 2.75,5.75 0.92,2.6 0.36,5.59 0.98,8.82 1.44,7.51 3.93,6.91 7.11,11.23 2.32,-3.14 3.37,-3.14 6.77,-1.62l1.38 -0.4c4.37,7.54 4.12,5.25 9.41,7.64 3.08,1.4 1.98,-0.73 1.87,2.85 -2.5,1.83 -2.68,1.17 -5.88,0.7l-0.1 2.88zm-18.6 -25.55c-0.45,-3.94 -0.61,-3.7 1.94,-4.93 2.3,1.83 1.42,5.17 3.62,8.61 1.9,2.98 4.28,3.5 5.11,6.11 -6.95,3.27 -10.15,-5.16 -10.67,-9.79zm-3.07 -12.97c2.53,0.99 4.35,2.98 4.98,5.56 -4.03,0.19 -4.15,-1.77 -4.98,-5.56zm-25.78 -7.59c-22.79,4.17 -34.13,10.24 -45.93,23.48 -6.98,7.84 -9.54,8.19 -13.42,21.51 -2.68,9.19 -5.13,20 -3.62,30.18 4,26.89 8.57,25.91 16.02,36.17 2.71,3.74 5.51,6.24 8.66,9.24 14.4,13.7 26.44,18.64 52.86,16.97 10.28,-0.65 17.75,-4.46 25.79,-8.25 11.29,-5.34 12.13,-7.86 18.63,-16.36 5.23,-6.85 9.21,-11.87 13.29,-21.65 5.06,-12.14 6.67,-30.38 -0.21,-42.07 -3.32,-5.65 -6.05,-3.07 -11.25,-6.66 -2.17,-1.5 -2.74,-3.01 -4.11,-3.98 -2.24,-1.59 -3.83,-0.86 -6.75,-2.23 -6.02,-2.82 -4.06,-6.79 -8.38,-9.5 -4.47,-2.81 -5.72,-3.78 -6.52,-10.35 -0.68,-5.64 -2.96,-8.18 -6.79,-11.24 -5.67,-4.54 -19.77,-6.8 -28.26,-5.25z"/>
   <path class="fil6" d="M1931.02 1103.68c0.66,1.97 -0.35,1.19 1.08,1.15 1.91,-2.11 5.29,-9.78 6.65,-12.12 3.84,-6.64 4.18,-5.63 9.21,-10.28 2.14,-1.04 2.43,-2.6 6.3,-3.84 2.72,-5.08 14.76,-8.88 21.72,-10.39 4.46,-0.97 8.94,-2.53 13.37,-2.94 4.82,-0.44 10.23,1.21 12.05,0.23 3.59,-1.94 1.26,0.75 1.89,-3.28 -3.94,-0.89 -6.04,-2.28 -11.47,-2.57 -4.78,-0.26 -8.53,0.79 -12.8,1.9 -9.54,2.48 -14.12,2.88 -21.93,8.1 -10.76,7.18 -25.04,21.19 -26.07,34.04z"/>
   <path class="fil36" d="M2016.95 1089.39c-0.2,6.66 -1.43,3.44 -3.13,7.73 -1.19,3.01 0.15,6.36 1.71,7.91 4.68,4.66 13.46,0.69 14.87,-3.6l0.1 -2.88c-1.66,-4.48 -5.23,-3.05 -6.78,-10.8 -3.41,-1.51 -4.45,-1.52 -6.77,1.62z"/>
   <path class="fil8" d="M1948.33 1087c1.57,-6.8 7.73,-9.73 12.86,-4.85 -2.65,0.34 -7.85,0.55 -9.86,1.98l-2.99 2.87zm-0.38 -4.56c-1.22,5.17 -0.49,6.5 0.31,10.65 3.86,1.26 6.55,2.31 10.64,-0.47 3.1,-2.12 5.93,-3.75 5.09,-9.48 -2.42,-3.32 -4.35,-4.78 -9.74,-4.55 -3.87,1.24 -4.16,2.8 -6.3,3.84z"/>
   <path class="fil7" d="M1958.29 1123.41c-0.78,-6.07 6.38,-7.11 10.7,-5.75 -3.23,2.39 -8.5,3.02 -10.7,5.75zm1.47 6.07c6,1 8.65,0.84 13.42,-1.32 0.5,-4.15 -0.33,-5.75 -1.22,-9.26 -3.31,-4.41 -7.79,-4.77 -12.38,-1.29 -1.73,1.32 -3.07,3.09 -2.8,6.18 0.28,3.22 1.51,3.64 2.99,5.7z"/>
   <path class="fil8" d="M1934.06 1138.49c2.6,-6.82 8.08,-0.95 9.73,2.42 -1.68,0.52 -7.86,-1.51 -9.73,-2.42zm-1.17 -1.46c-2.81,11.38 6.19,17.48 14.88,10.94 1.65,-5.68 -1.85,-7.75 -4.51,-10.49 -3.24,-3.33 -7.42,-6.17 -10.37,-0.45z"/>
   <path class="fil8" d="M2003.32 1138.55c-0.41,-3.47 0.2,-5.32 2.81,-6.91 2.11,-1.28 4.4,-1.57 6.62,-0.46 0.2,6.55 -4.55,-0.05 -9.42,7.37zm-2.09 0.08c2.99,2.29 3.27,4.95 8.5,5.52 5.21,0.57 7.34,-1.79 7.77,-6.32 -0.69,-3.19 -2.19,-6.04 -4.57,-8.29 -7.64,-1.57 -10.46,2.71 -11.7,9.08z"/>
   <path class="fil8" d="M2002.78 1171.35c0.97,-0.61 1.95,-0.87 3.02,-0.97 2.93,-0.3 3.98,-0.16 4.19,2.55 -1.78,0.82 -7.65,1.1 -9.24,0.76 0.99,-1.74 -0.26,-0.9 2.04,-2.34zm-5.72 8.42c4.68,7.04 16.12,-0.66 15.66,-6.88 -2.86,-7.84 -16.52,-3.53 -15.66,6.88z"/>
   <path class="fil8" d="M1957.97 1173c1.48,-3.87 3.68,-5.22 5.75,-1.2 -2.24,1.14 -3.37,0.9 -5.75,1.2zm-0.71 -2.57c-1.52,4.78 -0.5,7.52 3.49,9.65 4.65,2.48 7.79,2.31 11.22,-0.92 -0.24,-4.56 -3.12,-4.06 -5.91,-7.59 -3.17,-4.02 -4.55,-4.48 -8.79,-1.14z"/>
   <path class="fil8" d="M2045.12 1122.84l-2.5 7.49c-0.64,-3.64 0.58,-8.15 2.81,-10.93l3.69 0.91c-1.14,2.05 0.61,0.6 -1.35,1.69 -0.41,0.23 -2.59,0.8 -2.65,0.85zm-3.75 9.2c4.74,0.99 6.52,0.37 8.39,-3.01 1.99,-3.59 2.42,-6.29 0.25,-9.8 -2.88,-1.77 -2.62,-1.6 -6.09,-0.84 -2.72,4.6 -3.23,8.25 -2.55,13.65z"/>
   <path class="fil25" d="M2033.79 1070.32c0.9,-2.51 1.77,-3.69 3.95,-4.49 0.5,3.59 -0.68,3.87 -3.95,4.49zm-4.71 -8.19c2.39,-0.88 4.47,0.41 6.14,2.03 -0.77,2.31 -1.19,2.89 -2.87,4.19 -2.67,-1.08 -4.94,-2.53 -3.27,-6.23zm-0.48 -2.95c-7.33,8.98 4.99,14.06 8.03,12.89 7.89,-3.03 1.62,-12.69 -8.03,-12.89z"/>
   <path class="fil24" d="M2022.48 1085.68c-0.83,-2.61 -3.21,-3.13 -5.11,-6.11 -2.19,-3.44 -1.31,-6.79 -3.62,-8.61 -2.56,1.23 -2.39,0.99 -1.94,4.93 0.53,4.62 3.72,13.06 10.67,9.79z"/>
   <path class="fil28" d="M2047.68 1081.8c-1.04,-3.28 0.48,-3.72 1.81,-4.64 2.49,2.09 2.99,3.84 2.69,7.21 -2.81,0.41 -3.71,-0.05 -4.51,-2.57zm6.42 4.46c1.44,-5.37 -0.16,-8.66 -2.99,-10.97 -9.43,-0.2 -7.53,15.16 2.99,10.97z"/>
   <path class="fil9" d="M2020.17 1168.44c-1.1,0.17 -1.65,-0.12 -2.57,-0.29 0.6,-1.64 0,-2.31 2.84,-2.5 3.03,-0.2 2.27,1.15 2.38,1.27 -0.8,0.77 -0.63,1.21 -2.65,1.52zm-3.42 4.25c6.56,2.17 8.38,0.6 8.01,-6.53 -2,-2.3 -2.53,-2.12 -6.43,-1.58 -3.13,3.66 -3.04,3.8 -1.58,8.12z"/>
   <path class="fil13" d="M1959.75 1129.48c2.12,3.44 4.5,3.13 8.52,2.89 3.91,-0.08 5.1,-1.24 7.23,-2.71 0.89,-5.49 -0.96,-5.48 -1.2,-10.2l-2.36 -0.57c0.89,3.51 1.72,5.12 1.22,9.26 -4.76,2.16 -7.42,2.33 -13.42,1.32z"/>
   <path class="fil11" d="M1941.97 1102.15c1.22,-4.86 4.41,-4.85 5.76,-0.95l-5.76 0.95zm7.27 0.59c-0.08,-4.71 -1.77,-5.47 -6.17,-5.41 -8.95,8.72 2.01,13.07 6.17,5.41z"/>
   <path class="fil13" d="M1948.27 1093.09c7.15,9.77 19.05,-1.82 17.76,-6.91 -0.54,-2.1 -0.95,-1.99 -2.03,-3.04 0.84,5.73 -1.99,7.36 -5.09,9.48 -4.09,2.79 -6.78,1.74 -10.64,0.47z"/>
   <path class="fil37" d="M2030.5 1098.56c3.2,0.48 3.39,1.13 5.88,-0.7 0.11,-3.58 1.21,-1.46 -1.87,-2.85 -5.29,-2.4 -5.04,-0.1 -9.41,-7.64l-1.38 0.4c1.55,7.74 5.12,6.32 6.78,10.8z"/>
   <path class="fil13" d="M2001.23 1138.62c0.51,2.93 1.05,3.52 3.06,5.27 1.56,1.36 3.63,2.44 6.28,2.68 4.69,0.43 11.55,-4.31 6.94,-8.74 -0.43,4.52 -2.56,6.89 -7.77,6.32 -5.23,-0.58 -5.51,-3.23 -8.5,-5.52z"/>
   <path class="fil29" d="M2051.11 1060.57c2.23,1.08 2.05,0.91 2.92,3.81 -3.63,0.38 -3.31,-0.47 -2.92,-3.81zm-0.58 -2.19c-4.08,4.47 -0.79,9.81 3.63,8.42 3.82,-1.2 2.08,-8.1 -3.63,-8.42z"/>
   <path class="fil38" d="M2003.32 1138.55c4.87,-7.42 9.62,-0.81 9.42,-7.37 -2.22,-1.11 -4.51,-0.82 -6.62,0.46 -2.61,1.58 -3.22,3.43 -2.81,6.91z"/>
   <path class="fil17" d="M1928.61 1113.62c-0.52,3.18 -1.4,7.73 1.46,9.43 1.48,-2.23 1.27,-12.16 1.27,-12.18 -1.45,-1.61 0.29,-0.56 -2.27,-0.99l-0.46 3.74z"/>
   <path class="fil15" d="M1934.06 1138.49c1.87,0.9 8.05,2.93 9.73,2.42 -1.65,-3.37 -7.13,-9.23 -9.73,-2.42z"/>
   <path class="fil39" d="M2029.08 1062.12c-1.67,3.69 0.6,5.15 3.27,6.23 1.68,-1.3 2.1,-1.88 2.87,-4.19 -1.68,-1.62 -3.75,-2.92 -6.14,-2.03z"/>
   <path class="fil15" d="M1951.33 1084.13c2.02,-1.43 7.21,-1.63 9.86,-1.98 -5.12,-4.88 -11.29,-1.95 -12.86,4.85l2.99 -2.87z"/>
   <path class="fil20" d="M1988 1153.3l3.88 -1.76c2.29,-1.96 1.75,-0.4 1.31,-3.83 -3.97,-0.78 -5.77,0.61 -7.05,3.77 0.75,2.19 -0.27,0.68 1.86,1.82z"/>
   <path class="fil31" d="M2052.18 1084.37c0.3,-3.37 -0.2,-5.12 -2.69,-7.21 -1.33,0.92 -2.85,1.36 -1.81,4.64 0.8,2.52 1.69,2.98 4.51,2.57z"/>
   <path class="fil15" d="M1958.29 1123.41c2.2,-2.74 7.47,-3.36 10.7,-5.75 -4.32,-1.35 -11.48,-0.31 -10.7,5.75z"/>
   <path class="fil21" d="M2027.79 1152.96c2.55,-1.06 5.36,-4.07 6.08,-6.35 -4.06,-2.23 -7.88,2.62 -6.08,6.35z"/>
   <path class="fil38" d="M2000.74 1173.69c1.59,0.34 7.46,0.06 9.24,-0.76 -0.2,-2.71 -1.26,-2.85 -4.19,-2.55 -1.07,0.11 -2.05,0.37 -3.02,0.97 -2.29,1.44 -1.04,0.6 -2.04,2.34z"/>
   <path class="fil40" d="M2048.87 1104.09c-0.89,-1.49 -0.37,-0.89 -2.3,-1.72 -7.53,-3.25 -4.29,-3.74 -8.43,-4.54 0.97,4.47 5.43,6.25 10.72,6.26z"/>
   <path class="fil10" d="M1968.27 1132.37c0.37,2.31 1.39,2.9 3.96,2.44 2.13,-0.38 2.81,-1.94 3.84,-2.93l-0.57 -2.22c-2.13,1.47 -3.33,2.62 -7.23,2.71z"/>
   <path class="fil19" d="M2045.12 1122.84c0.06,-0.05 2.24,-0.62 2.65,-0.85 1.95,-1.08 0.21,0.36 1.35,-1.69l-3.69 -0.91c-2.23,2.78 -3.45,7.3 -2.81,10.93l2.5 -7.49z"/>
   <path class="fil10" d="M2027.5 1109.41c4.57,2.13 5.81,-2.95 6.97,-6.95 -2.61,0.54 -0.47,-0.92 -2.09,1.05 -2.18,2.66 1.9,0.06 -3.94,4.37l-0.94 1.53z"/>
   <path class="fil10" d="M1976.16 1077.67c2.95,-0.46 1.62,-0.23 3.72,-1.48 3.05,-1.82 2.02,-0.19 2.59,-2.69 -3.31,-0.63 -6.67,-1.78 -6.31,4.17z"/>
   <path class="fil10" d="M1999.07 1083.25c2.18,1.55 3.86,1.79 6.97,2.17 -0.91,-2.4 -0.95,-3.45 -3.38,-4.17 -2.7,-0.8 -3.12,0.24 -3.58,2z"/>
   <path class="fil21" d="M1995.08 1111.68c3.44,1.87 6.55,-0.42 5.31,-2.9 -0.93,-1.86 -4.73,-0.46 -5.31,2.9z"/>
   <path class="fil21" d="M1963.42 1157.99c0.8,1.98 -1.08,0.88 2.55,2.38 2.41,1 1.5,0.78 3.3,0.05 -0.34,-3.76 -2.32,-4.85 -5.85,-2.44z"/>
   <path class="fil10" d="M1940.88 1126.04c3.01,-1.69 3.15,-2.4 3.18,-6.26 -4.81,0.38 -4.15,1.69 -3.18,6.26z"/>
   <path class="fil10" d="M1988 1153.3c-2.22,1.84 -0.47,0.03 -1.5,2.68 4.27,-0.45 5.52,-0.02 5.38,-4.44l-3.88 1.76z"/>
   <path class="fil26" d="M2013.71 1068.49c-0.63,-2.58 -2.45,-4.56 -4.98,-5.56 0.83,3.78 0.96,5.75 4.98,5.56z"/>
   <path class="fil19" d="M1941.97 1102.15l5.76 -0.95c-1.35,-3.91 -4.54,-3.91 -5.76,0.95z"/>
   <path class="fil19" d="M1957.97 1173c2.38,-0.3 3.51,-0.06 5.75,-1.2 -2.07,-4.02 -4.27,-2.67 -5.75,1.2z"/>
   <path class="fil15" d="M2017.6 1168.15c0.92,0.17 1.48,0.46 2.57,0.29 2.02,-0.31 1.85,-0.75 2.65,-1.52 -0.12,-0.12 0.65,-1.47 -2.38,-1.27 -2.84,0.19 -2.24,0.87 -2.84,2.5z"/>
   <path class="fil41" d="M2033.79 1070.32c3.27,-0.62 4.45,-0.89 3.95,-4.49 -2.18,0.79 -3.05,1.98 -3.95,4.49z"/>
   <path class="fil42" d="M2054.03 1064.38c-0.87,-2.9 -0.69,-2.73 -2.92,-3.81 -0.38,3.34 -0.71,4.19 2.92,3.81z"/>
  </g>
 </g>
</svg>
