<?xml version="1.0" encoding="UTF-8"?>
<!DOCTYPE svg PUBLIC "-//W3C//DTD SVG 1.1//EN" "http://www.w3.org/Graphics/SVG/1.1/DTD/svg11.dtd">
<!-- Creator: CorelDRAW (Versión de evaluación) -->
<svg xmlns="http://www.w3.org/2000/svg" xml:space="preserve" width="169.418mm" height="81.9462mm" version="1.1" style="shape-rendering:geometricPrecision; text-rendering:geometricPrecision; image-rendering:optimizeQuality; fill-rule:evenodd; clip-rule:evenodd"
viewBox="0 0 2959.71 1431.59"
 xmlns:xlink="http://www.w3.org/1999/xlink"
 xmlns:xodm="http://www.corel.com/coreldraw/odm/2003">
 <defs>
  <style type="text/css">
   <![CDATA[
    .fil8 {fill:#693501}
    .fil7 {fill:#693605}
    .fil36 {fill:#6B3903}
    .fil9 {fill:#6D3302}
    .fil11 {fill:#6D3500}
    .fil16 {fill:#9B5C1B}
    .fil29 {fill:#9C5A0C}
    .fil34 {fill:#9C5B14}
    .fil28 {fill:#A35C13}
    .fil25 {fill:#A45B0B}
    .fil19 {fill:#A45E22}
    .fil15 {fill:#A75D18}
    .fil18 {fill:#A76418}
    .fil5 {fill:#AB5C0B}
    .fil38 {fill:#AB631C}
    .fil14 {fill:#D78B38}
    .fil27 {fill:#DA9539}
    .fil12 {fill:#DC9343}
    .fil13 {fill:#DD943B}
    .fil40 {fill:#E39335}
    .fil41 {fill:#E4943B}
    .fil37 {fill:#E49543}
    .fil23 {fill:#E49B42}
    .fil21 {fill:#E5993D}
    .fil33 {fill:#E6963D}
    .fil24 {fill:#E8963D}
    .fil26 {fill:#E9963A}
    .fil4 {fill:#EA993E}
    .fil20 {fill:#EA9A41}
    .fil35 {fill:#F3AB4E}
    .fil42 {fill:#F3B45A}
    .fil31 {fill:#F4B254}
    .fil32 {fill:#F6B557}
    .fil3 {fill:#F7B658}
    .fil39 {fill:#F9B55A}
    .fil30 {fill:#FBB356}
    .fil17 {fill:#FDD977}
    .fil10 {fill:#FED375}
    .fil22 {fill:#FFD57D}
    .fil6 {fill:#FFD67A}
    .fil1 {fill:white;fill-rule:nonzero}
    .fil0 {fill:#727271;fill-rule:nonzero;fill-opacity:0.380392}
    .fil2 {fill:#727271;fill-rule:nonzero;fill-opacity:0.529412}
   ]]>
  </style>
 </defs>
 <g id="Capa_x0020_1">
  <metadata id="CorelCorpID_0Corel-Layer"/>
  <g id="_2801523322560">
   <g filter="url(#filter0_d_145_1359)">
    <path class="fil0" d="M61.57 388.28c0,0 641.39,207.32 1300.06,0 658.66,-207.32 1598.08,0 1598.08,0l0 950.21c0,0 -796.88,-209.47 -1449.07,0 -652.19,209.48 -1449.07,0 -1449.07,0l0 -950.21z"/>
   </g>
  </g>
  <g id="_2801523321840">
   <g filter="url(#filter0_d_145_1359)">
    <path class="fil1" d="M0 314.39c0,0 641.39,207.32 1300.06,0 658.66,-207.32 1598.08,0 1598.08,0l0 950.21c0,0 -796.88,-209.47 -1449.07,0 -652.19,209.48 -1449.07,0 -1449.07,0l0 -950.21z"/>
   </g>
  </g>
  <g id="_2801523321120">
   <path class="fil2" d="M2419.34 877.94c0,-13.37 4.65,-24.92 13.94,-34.89 9.4,-9.97 21.64,-14.95 36.71,-14.95 18.47,0 33.53,8.27 45.32,24.7 11.67,16.54 17.56,35.01 17.56,55.29 0,29.91 -10.54,60.05 -31.72,90.52 -21.19,30.48 -35.69,45.66 -43.62,45.66 -2.15,0 -6.68,-2.49 -13.48,-7.59l-3.29 -2.38c-5.67,-3.74 -8.5,-6.8 -8.5,-8.95 0,-1.59 2.95,-6.57 8.84,-14.95 16.43,-23.68 24.7,-42.26 24.7,-55.74 0,-10.42 -5.32,-19.26 -15.86,-26.62 -10.54,-7.25 -18.24,-15.18 -23.22,-23.57 -4.87,-8.38 -7.37,-17.22 -7.37,-26.51z"/>
   <path class="fil2" d="M2568.89 877.94c0,-13.6 4.76,-25.26 14.28,-35.12 9.63,-9.86 21.75,-14.73 36.37,-14.73 18.47,0 33.53,8.27 45.32,24.7 11.67,16.54 17.56,35.01 17.56,55.29 0,14.62 -3.4,31.27 -10.31,49.96 -6.91,18.81 -18.01,37.84 -33.31,57.21 -15.18,19.37 -25.83,29 -31.72,29 -2.15,0 -6.68,-2.49 -13.48,-7.59l-3.29 -2.38c-5.67,-3.74 -8.5,-6.8 -8.5,-8.95 0,-1.59 2.95,-6.57 8.84,-14.95 16.43,-23.68 24.7,-42.26 24.7,-55.74 0,-6.68 -1.59,-11.9 -4.53,-15.86 -2.95,-3.85 -8.5,-8.84 -16.54,-14.84 -8.16,-6.12 -14.39,-13.03 -18.81,-20.85 -4.42,-7.7 -6.57,-16.09 -6.57,-25.15z"/>
  </g>
  <g id="_2801523323904">
   <path class="fil3" d="M2184.15 1021.83c6.21,-3.89 10.33,-1.68 9.6,5.38 -2.31,-0.36 -3.55,-0.61 -5.4,-1.31 -8.33,-3.15 -2.41,-1.97 -4.2,-4.07zm48.49 -11.74c1.66,3.84 1.22,0.51 0.68,5.87 -2.98,1.98 -5.11,2.89 -9.48,2.61 1.67,-3.75 0.66,-2.63 2.9,-4.94l-3.57 -2.68c1.64,-2.99 3.94,-6.91 7.73,-7.34 6.86,-0.77 7.59,4.23 1.74,6.47zm62.99 3c-1.44,-3.39 -0.09,-14.69 11.36,-10.98 -1.17,2.26 -7.7,9.88 -11.36,10.98zm-45.35 -24.27c0.37,-11.42 7,-19.35 20.25,-16.43l7.14 11.31 2.24 7.27c-0.01,2.08 -0.3,3.82 -1.14,5.52 -1.67,3.37 -5.53,5.06 -10.04,5.43 -9.36,0.77 -16.88,-3.82 -18.46,-13.1zm-52.57 -36.41c8.34,3.91 8.37,13.73 6.14,21.4 0.22,0.24 3.56,0.07 0.51,4.66 -0.66,0.99 -2.78,2.13 -3.76,2.43 -1.16,0.36 -3.59,0.85 -5.07,0.3 -4.52,-1.67 -1.77,0.89 -3.18,-4.33 -2.6,0.31 -5.09,0.81 -7.7,0.36 -8.06,-1.37 -4.18,-0.99 -5.25,-4.04 -4.56,-3.95 -12.22,-12.23 -3.57,-20.33 6.15,-5.76 16.22,-6.97 21.89,-0.46zm-51.48 13.84c-1.92,-3.11 -2.52,-5.12 -1.74,-10.06l5.66 0.2c1.48,4.25 -1.5,7.08 -3.92,9.86zm92.76 -24.93c1.39,-6.66 11.26,-9.97 9.28,-0.85 -3.24,2.88 -4.38,4.09 -9.28,0.85zm-7.83 -7.62c-3.9,-0.85 -2.75,-2.06 -2.66,-4.27 2.58,-1.03 -3.06,-1.04 3.43,-0.85 5.25,0.15 1.3,0.27 3.11,1.44 -0.36,1.32 0.65,4.67 -3.88,3.68zm-87.32 -1.69c-2.78,-10.47 5.51,-20.76 13.43,-13.32 7.62,7.16 -2.12,14.75 -13.43,13.32zm156.6 -26.54c2.8,2.36 1.53,-0.09 3.06,3.92 0,0.01 0.67,5.03 0.67,5.05 0.45,5.16 0.99,4.15 -0.5,9.22 3.13,1.38 2.93,-1.94 3.25,4.52 0.18,3.71 -2.82,9.63 -11.57,9.76l-0.6 -2.42c-3.46,0.72 -7.24,1.7 -11.53,1.14 -1.06,-0.14 -4.34,-1 -5.17,-1.62 -2.79,-2.11 -1.25,-0.42 -2.59,-3.99 -9.73,-11.76 -1.14,-17.3 0.68,-21.88 1.28,-3.22 0.89,-5.44 2.37,-8.78 11.84,-3.31 16.81,-2.79 21.95,5.07zm-49.85 -10.91c-7.99,-2.37 -3.01,0.94 -4.56,-4.09 6.35,-3.74 11.13,-1.26 11.21,5.26 -2.55,-0.22 -3.6,-0.27 -6.65,-1.17zm-44.18 -12.38c-0.93,-10.85 7.12,-9.34 11.09,-5.83 -3.33,3.49 -7.02,5.14 -11.09,5.83zm-37.11 1.45c9.2,0.47 11.15,2.24 15.54,8.29 1.54,1.23 2.42,0.42 3.73,4.53 0.95,2.97 0.89,2.36 0.1,5.19 -0.56,2.02 -9.06,10.97 -13.26,12.71 -11.37,4.7 -13.73,-0.87 -17.76,-5.15 -0.91,-4.6 -2.64,-8.44 -1.8,-15.51 -9.91,0.26 -21.36,26.57 -26.12,36.8 -2.82,-2.63 -3.22,4.05 -2.07,-4.72 -2.34,3.44 -2.04,7.33 -3.19,12.3 3.73,0.93 4.14,-2.04 3.31,14.63 -0.33,6.65 0.74,5.76 -3.05,9.24 -3.46,-8.25 -3.2,-10.02 -0.82,-18.71 -5.39,6.88 -0.5,34.58 2.57,38.69 3.93,5.26 -0.03,1.33 4.47,3.52 5.2,-9.98 12.48,-4.38 17.72,1.15 4.63,4.9 12.51,9.38 7.09,19.3 0.45,5.21 -6.45,5.04 -10.99,8.86 0.38,9.03 5.14,13.23 10.42,17.52 6.54,5.32 9.54,7.54 18.16,11.12 5.97,-4.56 8.42,-6 13.93,0.64 4.71,5.68 3.9,5.27 10.8,9.95l1.63 1.93c4.39,5.28 9.9,8.44 17.02,9.28 10.45,1.24 17.98,-1.92 25.64,-5.83 -1,-16.43 19.96,-25.88 27.68,-11.4 2.07,1.41 1.01,-0.8 3.18,2.77l5.02 -2.29c-2.66,-2.66 -5.6,-7.63 -1.17,-12.64 5.85,-6.62 10.3,-1.9 13.92,0.62 14.78,4.75 12.62,-0.43 27.45,-22.89 2.4,-3.64 8.21,-13.5 9.66,-17.25 2.53,-6.57 1.68,-10.94 -2.08,-14.43 -4.39,-4.07 -0.25,3.84 -4.28,-4.15 -5.8,-5.9 -2.08,-17.8 2.26,-25.14l8.03 0.34c4.37,-1.62 3.14,0.29 3.01,-7.2 -0.31,-17.25 -8.98,-25.83 -13.02,-36.52 -1.77,-4.69 -3.65,-10.87 -6.17,-14.99 -1.01,4.85 1.74,1.52 -1.86,3.47 -10.34,-6.2 -4.48,-4.31 -16.38,-16.21 -3.55,-3.55 -0.12,-0.87 -4.71,-3.79 -1.95,-1.25 -2.7,-1.61 -4.4,-2.61 -6.68,-3.92 -3.95,-2.9 -8.64,-7.19 1.48,-1.82 -4.31,-2.29 2.73,-1.29 -1.57,-1.14 2.58,-1.72 -3.3,-0.81 -1.65,3.36 -1.37,20.33 -9.41,12.89 -4.23,-0.91 -15.57,-6.26 -18.68,-9.37 -0.02,-4.47 1.28,-5.36 3.14,-8.3 1.31,-7.39 0.33,-3.23 -1.17,-4.9l-0.85 5.17c-22.93,0.64 -26.02,-0.34 -47.42,4.95 -8.44,2.09 -32.52,8.07 -35.61,17.43z"/>
   <path class="fil4" d="M2282.6 866.59c4.32,1.25 7.03,3.11 10.14,5.62 8.62,6.96 15.76,11.77 23.12,22.01 2.51,4.12 4.4,10.31 6.17,14.99 4.04,10.68 12.72,19.27 13.02,36.52 0.13,7.5 1.36,5.59 -3.01,7.2 5.08,3.95 6.99,8.01 3.08,16.61 -2.87,6.31 -5.72,7.78 -13.37,8.2 4.03,7.99 -0.11,0.08 4.28,4.15 3.76,3.49 4.61,7.85 2.08,14.43 -1.45,3.76 -7.26,13.62 -9.66,17.25 -14.82,22.46 -12.67,27.64 -27.45,22.89 -0.28,10.09 -1.37,14.36 -12.76,12.02l-5.02 2.29c-2.17,-3.58 -1.1,-1.36 -3.18,-2.77 -0.68,7.79 -5.03,10.99 -10.42,14.05 -8.55,4.86 -13.59,4.43 -17.25,-2.65 -7.67,3.91 -15.2,7.06 -25.64,5.83 -7.12,-0.84 -12.63,-4.01 -17.02,-9.28l-1.63 -1.93c2.91,16.73 -32.65,8.99 -24.74,-10.6 -8.62,-3.58 -11.62,-5.81 -18.16,-11.12 -5.27,-4.29 -10.04,-8.49 -10.42,-17.52 4.53,-3.83 11.44,-3.65 10.99,-8.86 -16.98,7.91 -30.02,-1.48 -24.8,-20.46 -4.5,-2.19 -0.54,1.74 -4.47,-3.52 -3.07,-4.11 -7.96,-31.81 -2.57,-38.69l0.56 -5.16c1.15,-4.98 0.85,-8.87 3.19,-12.3 3.32,-13.24 11.33,-25.8 18.27,-33.92l19.85 -18.33c20.96,-16.41 73.23,-30.48 87.4,-17.45 1.5,1.67 2.48,-2.49 1.17,4.9 7.53,-2.85 14.25,-2.32 18.07,3.23 3.62,5.26 4.96,14.04 -2.53,14.44 8.03,7.44 7.75,-9.52 9.41,-12.89 5.89,-0.9 1.74,-0.32 3.3,0.81zm63.19 108.64c3.28,-16.29 -0.92,-36.47 -7.67,-49.69 -17.47,-34.22 -7.78,-29.22 -34.99,-52.42 -5.81,-4.95 -10.2,-7.13 -17.32,-10.88 -32.46,-17.11 -59.17,-17.83 -93.04,-8.12 -18.02,5.17 -25.13,11.03 -37.21,20.58 -27.08,21.42 -36.63,39.33 -41.71,73.92 -2.63,17.92 0.74,36.32 5.84,52.86 5.37,17.42 14.12,25.79 22.74,35.18 14.06,15.31 40.23,41.34 74.05,41.54 19.4,0.11 34.47,0.34 51.63,-6.22 10.16,-3.89 32.54,-14.99 37.62,-20.24 4.03,-4.16 8,-11.75 12.51,-17.13 14.81,-17.68 22.73,-35.4 27.55,-59.38z"/>
   <path class="fil5" d="M2345.79 975.23c-4.83,23.97 -12.74,41.7 -27.55,59.38 -4.51,5.38 -8.48,12.97 -12.51,17.13 -5.08,5.25 -27.46,16.35 -37.62,20.24 -17.15,6.57 -32.23,6.34 -51.63,6.22 -33.83,-0.2 -60,-26.23 -74.05,-41.54 -8.62,-9.39 -17.37,-17.76 -22.74,-35.18 -5.1,-16.54 -8.47,-34.94 -5.84,-52.86 5.08,-34.59 14.63,-52.5 41.71,-73.92 12.08,-9.55 19.19,-15.42 37.21,-20.58 33.87,-9.71 60.58,-8.99 93.04,8.12 7.11,3.75 11.51,5.93 17.32,10.88 27.21,23.21 17.51,18.21 34.99,52.42 6.75,13.22 10.95,33.4 7.67,49.69zm-133.03 -130.21c-19,4.38 -30.65,5.66 -45.07,14.96 -13.45,8.68 -39.84,32.72 -46.12,44.33 -17.64,32.64 -18.37,89.67 3.47,120.03l13.74 15.89c28.42,32.06 55.08,48.56 107.62,42.66 16.99,-1.91 30.5,-8.43 44.13,-15.26 19.89,-9.96 19.62,-14.25 31.64,-29.19 16.75,-20.83 34.88,-54 27.7,-92.19 -3.84,-20.41 -10.4,-26.05 -16.65,-42.4 -15.28,-39.99 -76.58,-68.95 -120.44,-58.83z"/>
   <path class="fil6" d="M2127.66 925.78c-1.15,8.77 -0.75,2.09 2.07,4.72 4.77,-10.23 16.21,-36.54 26.12,-36.8 3.92,-5.3 5.39,-8.31 13.45,-10.06 3.09,-9.36 27.17,-15.35 35.61,-17.43 21.4,-5.29 24.49,-4.31 47.42,-4.95l0.85 -5.17c-14.17,-13.03 -66.44,1.03 -87.4,17.45l-19.85 18.33c-6.94,8.11 -14.95,20.67 -18.27,33.92z"/>
   <path class="fil7" d="M2273.41 920.39c0.83,-4.8 2.33,-4.69 4.13,-8.5 1.9,-4.01 1.48,-6.41 3.09,-9.37 7.28,-2.6 11.66,-3.27 15.62,2.09 -4.76,3.33 -10.83,0.13 -14.72,4.25 -3.51,3.71 -3.19,7.37 -8.12,11.54zm2.04 10.68c8.51,2.54 14.89,2.98 21.11,-2.95 6.36,-6.06 3.9,-12.56 3.88,-22.64 -5.13,-7.86 -10.11,-8.38 -21.95,-5.07 -1.48,3.34 -1.08,5.56 -2.37,8.78 -1.83,4.58 -10.41,10.12 -0.68,21.88z"/>
   <path class="fil8" d="M2157.7 901.72c-0.16,-5.54 -1.09,-4.39 1.9,-8.84 5.87,-8.73 12.48,-8.14 20.62,-4.06 -2.07,1.55 2.53,0.39 -4.02,2.32 -10.05,2.95 -9.45,-5.51 -18.51,10.59zm-1.85 -8.02c-0.84,7.06 0.89,10.91 1.8,15.51 6.96,2.54 11.61,4.01 18.62,-1.04 4.96,-3.58 10.44,-6.61 8.57,-16.23 -4.4,-6.05 -6.34,-7.83 -15.54,-8.29 -8.06,1.75 -9.52,4.76 -13.45,10.06z"/>
   <path class="fil7" d="M2175.12 962.05c-0.42,-10.4 9.04,-12.2 18.61,-11.27 -0.33,0.37 -0.71,0.84 -1,1.11 -9.96,9 -14.46,3.06 -17.61,10.16zm4.28 11.15c9.28,0.77 14.91,0.23 21.63,-3.21 0.79,-8.48 -0.27,-10.72 -3.32,-17.58 -5.67,-6.5 -15.74,-5.3 -21.89,0.46 -8.65,8.1 -0.99,16.37 3.57,20.33z"/>
   <path class="fil9" d="M2133.04 987.94c3.23,-8.86 13.15,-5.94 16.65,5.49l-16.65 -5.49zm-2.09 -2.48c-5.22,18.97 7.82,28.37 24.8,20.46 5.42,-9.92 -2.46,-14.41 -7.09,-19.3 -5.24,-5.53 -12.52,-11.13 -17.72,-1.15z"/>
   <path class="fil9" d="M2253.51 987.85c-1.9,-10.31 8.02,-15.27 16.74,-12.92 -1.59,12.61 -8.21,0.24 -16.74,12.92zm-3.22 0.98c2.57,2.68 5.77,8.84 15.72,9.22 9.34,0.35 12,-5.58 11.68,-14.33l-7.14 -11.31c-13.25,-2.92 -19.88,5.01 -20.25,16.43z"/>
   <path class="fil8" d="M2252.42 1044.91c0.9,-0.46 3.14,-1.01 4.33,-1.19 8.76,-1.33 8.29,2.88 8.72,3.55 -0.39,0.26 -0.82,0.6 -1.18,0.73l-3.94 1.07c-4.15,0.55 -8.16,1.26 -11.56,-0.4 0.95,-1.54 -1.15,-1.33 3.62,-3.76zm-10.05 14.5c3.67,7.08 8.7,7.52 17.25,2.65 5.39,-3.06 9.74,-6.26 10.42,-14.05 -7.72,-14.48 -28.67,-5.03 -27.68,11.4z"/>
   <path class="fil7" d="M2174.74 1046.99c1.9,-5.9 7.68,-7.38 9.56,0.32l-9.56 -0.32zm-1.4 -3.57c-7.92,19.59 27.65,27.33 24.74,10.6 -6.91,-4.69 -6.1,-4.28 -10.8,-9.95 -5.51,-6.64 -7.96,-5.2 -13.93,-0.64z"/>
   <path class="fil7" d="M2253.55 869.04c0.58,-7.41 3.56,-7.85 11.23,-7.85 -2.52,2.93 -1.9,1.26 -5.12,4.64 -3.24,3.4 0.74,3.02 -6.11,3.21zm0.8 -8.05c-1.86,2.94 -3.16,3.83 -3.14,8.3 3.11,3.1 14.45,8.45 18.68,9.37 7.49,-0.39 6.16,-9.18 2.53,-14.44 -3.82,-5.55 -10.55,-6.08 -18.07,-3.23z"/>
   <path class="fil9" d="M2321.2 973.99c-1.19,-6.96 -0.34,-5.26 1.5,-11.18 3.33,-10.74 0.85,-5.44 4.01,-8.33 5.27,1.17 2.93,-0.23 6.54,3.8l-6.99 2.09c-1.27,4.27 -2.39,10.43 -5.06,13.62zm0.55 3.75c7.65,-0.42 10.5,-1.89 13.37,-8.2 3.91,-8.59 2,-12.65 -3.08,-16.61l-8.03 -0.34c-4.34,7.34 -8.07,19.24 -2.26,25.14z"/>
   <path class="fil10" d="M2315.86 894.22c-7.36,-10.24 -14.51,-15.05 -23.12,-22.01 -3.11,-2.51 -5.82,-4.37 -10.14,-5.62 -7.04,-0.99 -1.25,-0.53 -2.73,1.29 4.69,4.29 1.97,3.27 8.64,7.19 1.71,1 2.45,1.37 4.4,2.61 4.59,2.92 1.16,0.25 4.71,3.79 11.9,11.9 6.04,10.01 16.38,16.21 3.6,-1.95 0.85,1.39 1.86,-3.47z"/>
   <path class="fil11" d="M2282.91 1035.67c5.65,-0.61 3.8,1.32 4.31,1.7 -0.72,0.77 -1.21,2.54 -4.42,2.86 -3.83,0.39 -3.11,-0.93 -3.9,-1.45 0.15,-2.03 1.17,-2.81 4.01,-3.11zm-4.67 12.82c11.39,2.33 12.48,-1.93 12.76,-12.02 -3.62,-2.53 -8.07,-7.24 -13.92,-0.62 -4.43,5.02 -1.49,9.98 1.17,12.64z"/>
   <path class="fil12" d="M2275.45 931.07c1.34,3.57 -0.21,1.88 2.59,3.99 0.83,0.63 4.11,1.49 5.17,1.62 4.29,0.56 8.07,-0.42 11.53,-1.14 4.69,-5.14 6.68,-3.36 8.93,-11.87 1.5,-5.08 0.96,-4.06 0.5,-9.22 -0,-0.02 -0.66,-5.04 -0.67,-5.05 -1.53,-4.02 -0.26,-1.56 -3.06,-3.92 0.02,10.08 2.48,16.58 -3.88,22.64 -6.23,5.93 -12.6,5.49 -21.11,2.95z"/>
   <path class="fil13" d="M2157.65 909.2c4.03,4.28 6.4,9.85 17.76,5.15 4.2,-1.74 12.7,-10.69 13.26,-12.71 0.79,-2.83 0.85,-2.22 -0.1,-5.19 -1.32,-4.11 -2.19,-3.3 -3.73,-4.53 1.86,9.62 -3.61,12.66 -8.57,16.23 -7.01,5.05 -11.66,3.58 -18.62,1.04z"/>
   <path class="fil13" d="M2179.4 973.2c1.07,3.05 -2.82,2.66 5.25,4.04 2.61,0.45 5.1,-0.05 7.7,-0.36 5.08,1.1 7.67,-0.33 11.51,-3.06 2.23,-7.67 2.21,-17.5 -6.14,-21.4 3.04,6.86 4.11,9.1 3.32,17.58 -6.72,3.44 -12.35,3.98 -21.63,3.21z"/>
   <path class="fil11" d="M2151.56 918.65c4.27,0.16 3.76,2.27 4.54,4.56l-9.33 1.71c0.68,-4.17 0.14,-6.44 4.79,-6.27zm-7.72 13.36c11.31,1.42 21.05,-6.17 13.43,-13.32 -7.92,-7.43 -16.21,2.86 -13.43,13.32z"/>
   <path class="fil14" d="M2250.29 988.83c1.57,9.28 9.1,13.88 18.46,13.1 4.51,-0.37 8.37,-2.05 10.04,-5.43 0.84,-1.69 1.13,-3.44 1.14,-5.52l-2.24 -7.27c0.33,8.75 -2.34,14.69 -11.68,14.33 -9.95,-0.38 -13.14,-6.54 -15.72,-9.22z"/>
   <path class="fil15" d="M2273.41 920.39c4.92,-4.17 4.6,-7.83 8.12,-11.54 3.89,-4.11 9.96,-0.91 14.72,-4.25 -3.96,-5.36 -8.33,-4.69 -15.62,-2.09 -1.61,2.96 -1.19,5.36 -3.09,9.37 -1.8,3.8 -3.3,3.69 -4.13,8.5z"/>
   <path class="fil16" d="M2157.7 901.72c9.06,-16.09 8.46,-7.64 18.51,-10.59 6.55,-1.92 1.95,-0.77 4.02,-2.32 -8.14,-4.08 -14.76,-4.67 -20.62,4.06 -2.99,4.45 -2.06,3.3 -1.9,8.84z"/>
   <path class="fil17" d="M2123.91 943.24c-2.37,8.69 -2.64,10.46 0.82,18.71 3.79,-3.47 2.72,-2.59 3.05,-9.24 0.83,-16.67 0.41,-13.71 -3.31,-14.63l-0.56 5.16z"/>
   <path class="fil18" d="M2253.51 987.85c8.53,-12.68 15.16,-0.31 16.74,-12.92 -8.73,-2.35 -18.65,2.6 -16.74,12.92z"/>
   <path class="fil18" d="M2133.04 987.94l16.65 5.49c-3.5,-11.43 -13.42,-14.35 -16.65,-5.49z"/>
   <path class="fil10" d="M2294.74 935.55l0.6 2.42c8.75,-0.13 11.76,-6.05 11.57,-9.76 -0.32,-6.46 -0.12,-3.14 -3.25,-4.52 -2.25,8.51 -4.23,6.73 -8.93,11.87z"/>
   <path class="fil19" d="M2175.12 962.05c3.14,-7.1 7.64,-1.16 17.61,-10.16 0.3,-0.27 0.67,-0.74 1,-1.11 -9.57,-0.93 -19.03,0.87 -18.61,11.27z"/>
   <path class="fil20" d="M2226.75 1013.64l5.9 -3.54c5.84,-2.23 5.12,-7.24 -1.74,-6.47 -3.79,0.43 -6.09,4.34 -7.73,7.34l3.57 2.68z"/>
   <path class="fil19" d="M2248.79 1048.67c3.4,1.66 7.41,0.94 11.56,0.4l3.94 -1.07c0.36,-0.13 0.79,-0.48 1.18,-0.73 -0.43,-0.67 0.03,-4.88 -8.72,-3.55 -1.19,0.18 -3.42,0.74 -4.33,1.19 -4.78,2.44 -2.68,2.22 -3.62,3.76z"/>
   <path class="fil21" d="M2295.64 1013.1c3.65,-1.09 10.19,-8.71 11.36,-10.98 -11.45,-3.72 -12.8,7.59 -11.36,10.98z"/>
   <path class="fil16" d="M2321.2 973.99c2.67,-3.19 3.79,-9.35 5.06,-13.62l6.99 -2.09c-3.61,-4.03 -1.28,-2.63 -6.54,-3.8 -3.16,2.9 -0.67,-2.41 -4.01,8.33 -1.84,5.92 -2.69,4.21 -1.5,11.18z"/>
   <path class="fil10" d="M2206.42 882.19c4.07,-0.69 7.77,-2.34 11.09,-5.83 -3.98,-3.51 -12.02,-5.02 -11.09,5.83z"/>
   <path class="fil20" d="M2239 941.33c4.9,3.23 6.04,2.03 9.28,-0.85 1.97,-9.11 -7.89,-5.81 -9.28,0.85z"/>
   <path class="fil22" d="M2192.35 976.87c1.41,5.22 -1.34,2.66 3.18,4.33 1.48,0.55 3.91,0.06 5.07,-0.3 0.98,-0.31 3.1,-1.44 3.76,-2.43 3.05,-4.59 -0.28,-4.42 -0.51,-4.66 -3.84,2.73 -6.42,4.15 -11.51,3.06z"/>
   <path class="fil10" d="M2246.04 890.48c1.55,5.02 -3.43,1.72 4.56,4.09 3.05,0.9 4.1,0.95 6.65,1.17 -0.08,-6.52 -4.86,-8.99 -11.21,-5.26z"/>
   <path class="fil23" d="M2193.76 1027.21c0.72,-7.05 -3.39,-9.26 -9.6,-5.38 1.79,2.1 -4.13,0.92 4.2,4.07 1.85,0.7 3.09,0.95 5.4,1.31z"/>
   <path class="fil10" d="M2226.75 1013.64c-2.23,2.31 -1.22,1.18 -2.9,4.94 4.37,0.28 6.5,-0.63 9.48,-2.61 0.54,-5.35 0.97,-2.03 -0.68,-5.87l-5.9 3.54z"/>
   <path class="fil10" d="M2146.24 966.26c2.42,-2.78 5.4,-5.61 3.92,-9.86l-5.66 -0.2c-0.78,4.94 -0.18,6.95 1.74,10.06z"/>
   <path class="fil16" d="M2253.55 869.04c6.85,-0.2 2.88,0.18 6.11,-3.21 3.22,-3.38 2.6,-1.71 5.12,-4.64 -7.67,-0 -10.65,0.44 -11.23,7.85z"/>
   <path class="fil18" d="M2146.77 924.93l9.33 -1.71c-0.77,-2.29 -0.26,-4.4 -4.54,-4.56 -4.65,-0.17 -4.11,2.1 -4.79,6.27z"/>
   <path class="fil18" d="M2174.74 1046.99l9.56 0.32c-1.88,-7.7 -7.67,-6.23 -9.56,-0.32z"/>
   <path class="fil21" d="M2228.5 929.44c-0.09,2.21 -1.24,3.42 2.66,4.27 4.53,0.99 3.53,-2.36 3.88,-3.68 -1.82,-1.17 2.13,-1.28 -3.11,-1.44 -6.5,-0.19 -0.85,-0.17 -3.43,0.85z"/>
   <path class="fil15" d="M2278.9 1038.78c0.79,0.52 0.07,1.84 3.9,1.45 3.21,-0.32 3.69,-2.09 4.42,-2.86 -0.51,-0.38 1.35,-2.31 -4.31,-1.7 -2.83,0.31 -3.86,1.08 -4.01,3.11z"/>
  </g>
  <g id="_2801523307632">
   <path class="fil3" d="M1873.37 279.03c-0.24,-15.04 4.73,-19.95 18.68,-20.04 -1.32,7.8 -0.98,4.62 -6.98,10.64 -6.86,6.87 -3.02,6.77 -11.69,9.4zm-74.13 -41.59c3.32,-14.29 7.55,-25.56 24.5,-26.29 12.91,-0.56 20.88,13.8 22.21,26.04 17.72,20.82 -37.97,40.53 -46.71,0.25zm-84.82 -59.77c10.85,9.11 15.94,24.77 8.78,36.72 6.74,3.2 3.68,-3.35 2.87,4.7 -0.97,9.77 -18.79,7.78 -18.8,7.78 -0.51,-0.42 -0.92,-2.01 -1.01,-1.71l-1.36 -5.74c-15.02,3.08 -17.72,-0.81 -26.6,-9 -4.23,-9.63 -9.04,-23.17 2.36,-32.05 18.51,-14.42 25.31,-1.79 33.76,-0.7zm-88.08 17.76l2.45 -10.66 7.27 -0.38 -0.39 14.09 -9.34 -3.05zm155.65 -31.84c-0.2,-2.53 -4.2,-10.15 8.22,-12.45 10.67,-1.98 12.38,13.96 -8.22,12.45zm-18.58 -20.59c0.43,-0.41 3.72,-5.67 8.51,-3.53 9.84,4.41 0.92,9.07 0.85,9.19 -7.27,0.68 -5.87,-0.93 -9.36,-5.66zm-121.56 2.37c-8.98,10.06 -20.71,0.28 -21.04,-0.17 -3.39,-10.62 1.58,-15.39 4.58,-24.59l9.33 -0.42c19.15,1.31 23.6,16.11 7.13,25.18zm84.95 -83.8c2.81,-10.36 9.5,-12.94 19.37,-8.01 -1.99,5.15 -3.47,5.28 -9.06,8.32 -7.26,3.95 -2.18,5.36 -10.32,-0.3zm-60.22 5.29c16.73,0.22 19.31,4.01 26.63,12.72 3.74,2.45 2.63,-3.3 6.19,7.12 6.3,18.44 -36.55,49.73 -50.34,21.55 -2.3,-7.59 -4.75,-14.6 -2.7,-25.35 -8.97,-0.95 -12.33,6.21 -16.65,12.17 -4.36,6.01 -7.19,10.7 -10.98,16.8 -8.03,12.95 -10.24,24.03 -13.95,27.73 -6.63,6.61 -4.33,1.24 -5.15,-0.61 -4.96,6 -0.84,0.22 -3.16,8.05 -1.7,5.74 -1.65,6.7 -4.26,13.23 16.18,5.45 23.06,13.54 27.15,34.59l6.98 0.57c24.25,17.02 17.54,3.57 32.77,35.38 5.35,11.18 10.88,6.32 18.98,15.65 3.4,3.91 8.93,14.48 9.99,22.39 23.44,-5.53 24.26,-8.24 49.02,-0.42 18.48,5.83 29.51,-6.37 45.04,10.36 3.67,3.95 3.46,5.69 6.69,9.53 10.86,12.97 27.51,4.57 34.32,35.24 2.23,10.05 1.02,14.84 9.65,15.85l9.03 3c2.53,-4.12 1.49,-2.02 2.02,-7.61 -4.14,-11.48 -4.32,-13.07 4.19,-22.84l14.83 -0.64c3.19,4.49 0.33,0.71 3.36,4.94 0.79,0.29 14.32,13.53 27.57,-7.88l33.16 -56.96c9.99,-25.07 -3.61,-19.35 -10.17,-31.5 -9.44,-10.49 -2.36,-27.88 3.89,-39.26l14.09 -1.79 4.21 -0.27 0.28 -7.89c-17.71,4.52 -17.17,4.47 -34.73,-0.15 -12.55,-3.3 -28.51,2.07 -48.61,-11.75 -6.52,-4.48 -4.68,-5.37 -9.34,-9.03 -16.49,-12.93 -28.62,5.6 -43.06,-36.06 -3.74,-10.79 -10.81,-12.9 -16.08,-22.68 -8.33,-15.45 -3.37,-19.27 -2.7,-34.24 0.37,-8.31 -6.26,-15.46 -5.82,-30.72 -5.06,2.81 -101.21,16.01 -112.33,40.79z"/>
   <path class="fil5" d="M1821.27 342.9c9.6,2.76 9.3,6.19 11.79,16.4 -6.81,-4.09 -10.22,-4.21 -15.75,-9.01 1.53,-8.02 0.23,-4.16 3.96,-7.39zm-6.8 -1.16c-11.25,-5.28 -1.5,-4.5 -12.44,-18.09 -6.79,-8.44 -11.84,-7.56 -17.61,-13.89 4.71,-14.29 16.66,-7.16 23.28,-1.12 9.11,8.32 11.69,20.16 6.76,33.1zm-72.42 -55.5c5.85,-22.31 51.9,-6.65 37.25,16.69 -6.63,-3.46 -7.84,-6.84 -15.37,-10.85 -8.25,-4.39 -14.04,-2.66 -21.88,-5.84zm-54.55 -0.71c0.77,-7.6 0.84,-12.59 20.57,-14.56 12.23,-1.22 22.04,-0.57 28.4,7.21l-2.46 6.36c-6.4,0.75 -13.94,-2.38 -21.74,-2.55 -11.35,-0.25 -14.98,2.17 -24.77,3.53zm-37.6 -38.98c12.86,-12.47 35.9,12.32 31.39,34.33 -4.72,-1.48 0.28,1.48 -3.54,-2.02 -6.3,-5.75 -5.89,-11.38 -19.71,-21.6 -14.4,-10.65 -3.59,-0.49 -8.14,-10.71zm-36.15 -41.14c17.96,-10.99 40.29,18.31 37.02,29.15 -3.13,10.36 -1.07,3.21 -6.33,6.04 -3.45,-26 -23.79,-27 -30.68,-35.19zm-17.25 -36.4c10.72,4.59 19.91,21.75 11.83,31.79 -4.83,-6.7 -2.03,-6.37 -4.81,-16.08 -1.72,-6.01 -4.5,-10.33 -7.02,-15.71zm311.94 -12.27c3.07,-1 20.33,3.96 29.67,4.78 -6.8,5.89 -37.51,9.22 -29.67,-4.78zm-53.06 -20.49c14.2,3.09 7.03,6.59 20.61,11.79 9.28,3.55 19.84,2.22 25.58,6.51 -6.49,18.72 -40.8,0.8 -46.4,-4.5 -6.32,-5.97 -3.55,-8.19 0.2,-13.8zm-44.8 -27c4.56,-5.92 2.98,-4.96 11.41,-8.31 1.63,7.82 5.38,15.53 9.81,19.57 8.58,7.81 16.15,3.38 17.6,16.28 -23.27,9.67 -34.4,-8.25 -38.82,-27.54zm-9.08 -57.52c1.39,8.57 0.45,15.36 3.83,23.54 4.55,11.01 7.55,6.94 10.72,19.22l-8.43 7.63c-16.94,-6.23 -26.45,-39.23 -6.12,-50.38zm-15.21 -26.13c5.21,3.55 11.84,13.19 13.55,18.06l-9.95 5.82c-2.31,-8.65 -5.17,-13.5 -3.6,-23.88zm-7.36 0.48c-0.44,15.26 6.19,22.4 5.82,30.72 -0.67,14.98 -5.63,18.8 2.7,34.24 5.27,9.78 12.34,11.9 16.08,22.68 14.43,41.65 26.57,23.13 43.06,36.06 4.67,3.66 2.82,4.54 9.34,9.03 20.09,13.82 36.06,8.45 48.61,11.75 17.56,4.62 17.02,4.67 34.73,0.15 5.94,-4.07 7.46,-6.49 13.04,-9.16 6.56,33.88 8.69,36.71 0.99,72.4 -8.9,41.24 -63.75,130.38 -111.09,134.48l-9.4 -29.01c-8.62,-1.01 -7.41,-5.8 -9.65,-15.85 -6.82,-30.67 -23.46,-22.27 -34.32,-35.24 -3.22,-3.85 -3.01,-5.58 -6.69,-9.53 -15.54,-16.72 -26.56,-4.52 -45.04,-10.36 -24.76,-7.81 -25.57,-5.1 -49.02,0.42 -1.05,-7.9 -6.58,-18.47 -9.99,-22.39 -8.1,-9.32 -13.63,-4.47 -18.98,-15.65 -15.22,-31.81 -8.52,-18.36 -32.77,-35.38l-6.98 -0.57c-4.1,-21.05 -10.98,-29.14 -27.15,-34.59l-9.22 -5.63c-2.34,-43.7 36.44,-78.94 66.29,-104.65 25.62,-22.07 84.1,-48.11 132.32,-40.65 1.62,2.9 2.91,-1.78 0.02,4.44l-2.71 12.3zm25.71 326.35l8.89 5.99c21.01,10.05 10.92,7.42 21,19.92 17.24,0.37 52.89,-22.69 61.33,-30.97l39.68 -52.81c27.56,-42.55 39.23,-92.79 20.32,-145.2 -13.22,-0.41 -22,6.94 -36.09,0.94 -26.84,-11.43 -7.23,-3.48 -31.76,-7.2 -15.46,-2.34 -16.33,-8.12 -24.49,-15.02 -8.85,-7.47 -16.74,-4.67 -26.45,-15.12 -9.69,-10.42 -5.09,-15.8 -13.72,-25.52 -28.15,-31.71 0.79,-34.38 -19.6,-54.35 -10.22,-10.01 -8.51,-14.11 -12.17,-29.69 -27.84,-7.79 -60.03,-0.69 -87,6.9 -29.64,8.34 -46.36,21.09 -65.6,36.25 -10.02,7.89 -43.74,42.63 -49.3,52.44 -5.87,10.36 -9.65,24.53 -13.35,37.62 -8.31,29.34 -0.89,20.7 10.9,34.46 12.62,14.73 7.82,30.61 12.95,37.93 5.1,7.28 21.91,6 31.39,19.39 12.64,17.87 -3.91,18.08 18.38,32.55 5.97,3.88 9.02,6.32 13.38,11.94 4.66,6.01 5.53,10.56 9.52,15.87 10.25,13.68 21.83,0.67 39.5,1.03 11.31,0.23 13.74,3.49 21.48,5.29 8.46,1.97 13.71,0.07 22.55,2.88 19.32,6.15 2.77,8.61 28.5,22.15 17.45,9.18 13.08,15.25 19.78,32.34z"/>
   <path class="fil4" d="M1939.25 170.7l-0.28 7.89 -4.21 0.27c6.56,11.62 11.79,11.83 4.11,29 -3.93,8.8 -9.08,13.75 -22.09,12.05 6.56,12.15 20.16,6.43 10.17,31.5l-33.16 56.96c-13.25,21.41 -26.78,8.17 -27.57,7.88 0.55,9.2 -0.03,12.61 -2.7,19.37 -8.6,1.9 -12.03,2.26 -19.68,-0.83 -0.52,5.59 0.51,3.49 -2.02,7.61l-9.03 -3 9.4 29.01c47.34,-4.1 102.19,-93.24 111.09,-134.48 7.7,-35.69 5.57,-38.52 -0.99,-72.4 -5.58,2.67 -7.1,5.09 -13.04,9.16z"/>
   <path class="fil22" d="M1599.62 138.98c0.82,1.86 -1.48,7.22 5.15,0.61 3.71,-3.7 5.93,-14.78 13.95,-27.73 3.79,-6.11 6.62,-10.79 10.98,-16.8 4.32,-5.96 7.68,-13.12 16.65,-12.17 4.67,-7.82 9.32,-13.24 20.23,-16.04 11.12,-24.78 107.28,-37.98 112.33,-40.79l2.71 -12.3c-47.84,-0.2 -86.55,12.68 -117.41,34.92 -11.88,8.56 -31.75,26.31 -39.27,36.97 -8.25,11.7 -24.51,35.56 -25.32,53.31z"/>
   <path class="fil24" d="M1592.21 160.26c2.61,-6.53 2.56,-7.49 4.26,-13.23 2.31,-7.83 -1.8,-2.05 3.16,-8.05 0.81,-17.75 17.08,-41.61 25.32,-53.31 7.52,-10.66 27.39,-28.41 39.27,-36.97 30.86,-22.25 69.57,-35.13 117.41,-34.92 2.88,-6.22 1.6,-1.55 -0.02,-4.44 -48.22,-7.47 -106.7,18.58 -132.32,40.65 -29.85,25.71 -68.63,60.96 -66.29,104.65l9.22 5.63z"/>
   <path class="fil8" d="M1648.6 91.74c3.94,-15.89 19.57,-29.77 35.95,-15.74 -0.47,0.28 -1.12,0.67 -1.44,0.81 -0.32,0.14 -1.08,0.61 -1.48,0.76 -0.56,0.21 -2.55,0.94 -3.26,1.11 -21.39,5.08 -10.35,-6.59 -26.2,9.87 -0.41,0.43 -1.42,2.04 -1.74,1.57 -0.33,-0.49 -1.2,1.1 -1.84,1.62zm-2.24 -8.84c-2.05,10.75 0.4,17.76 2.7,25.35 10.28,3.66 19.25,6.01 29.55,-1.19 9.09,-6.36 17.39,-10.35 14.6,-27.48 -7.32,-8.71 -9.9,-12.5 -26.63,-12.72 -10.9,2.8 -15.56,8.22 -20.23,16.04z"/>
   <path class="fil7" d="M1677.11 194.2c2.06,-14.72 15.17,-21.05 30.17,-15.55 -10.77,6.49 -22.89,8.45 -30.17,15.55zm1.19 16.22c13.03,3.82 27.11,6.06 39.34,-2 6.36,-9.65 0.11,-19.33 -3.22,-30.76 -8.45,-1.09 -15.25,-13.72 -33.76,0.7 -11.4,8.88 -6.59,22.42 -2.36,32.05z"/>
   <path class="fil7" d="M1805.32 237.78c-2.59,-15.23 11.29,-28.15 26.88,-20.84 0.32,13.36 -3.08,8.32 -15.1,10.27 -11.08,1.8 -7.1,3.4 -11.79,10.57zm-6.08 -0.33c0.48,0.41 1.19,0.43 1.41,1.28 0.21,0.83 1.08,0.97 1.36,1.26l6.91 7.48c4.44,3.98 8.69,5.91 14.45,6.45 14.21,1.32 19.93,-5.3 22.58,-16.72 -1.33,-12.24 -9.3,-26.6 -22.21,-26.04 -16.95,0.74 -21.18,12 -24.5,26.29z"/>
   <path class="fil8" d="M1925.24 183.9c6.45,-0.54 7.53,1.08 10.39,5.63l-11.38 3.35 -5.83 20.5c-5.2,-8.57 2.56,-25.49 6.82,-29.48zm-8.45 36c13,1.7 18.15,-3.26 22.09,-12.05 7.68,-17.17 2.45,-17.38 -4.11,-29l-14.09 1.79c-6.25,11.38 -13.33,28.77 -3.89,39.26z"/>
   <path class="fil25" d="M1592.26 293.18c3.39,-3.81 6.59,-8.13 13.43,-9.07 -1.08,5.01 -1.1,6.12 -4.77,8.85 -7.2,5.36 -5.88,1.75 -8.66,0.22zm-9.35 -24.59c8.06,1.79 10.24,4.59 15.69,8.38 -2.76,6.13 -5.11,8.64 -11.07,11.6 -7.66,-5.62 -11.72,-9.92 -4.62,-19.98zm28.33 19.97c-1.27,-13.46 -16.19,-26.66 -30.24,-26.98 -12.52,12.62 -10.86,20.46 1.4,32.13 11.41,10.87 21.62,10.91 28.84,-5.16z"/>
   <path class="fil24" d="M1831.79 120.52c-4.44,-4.04 -8.18,-11.76 -9.81,-19.57 -8.44,3.35 -6.85,2.39 -11.41,8.31 4.42,19.29 15.56,37.21 38.82,27.54 -1.44,-12.9 -9.01,-8.47 -17.6,-16.28z"/>
   <path class="fil24" d="M1801.49 51.73c-20.33,11.15 -10.82,44.15 6.12,50.38l8.43 -7.63c-3.17,-12.27 -6.17,-8.21 -10.72,-19.22 -3.38,-8.18 -2.44,-14.97 -3.83,-23.54z"/>
   <path class="fil24" d="M1901.57 154.55c-5.74,-4.29 -16.31,-2.95 -25.58,-6.51 -13.58,-5.2 -6.42,-8.7 -20.61,-11.79 -3.76,5.61 -6.52,7.83 -0.2,13.8 5.6,5.3 39.91,23.22 46.4,4.5z"/>
   <path class="fil26" d="M1784.42 309.76c5.77,6.33 10.82,5.46 17.61,13.89 10.93,13.59 1.18,12.81 12.44,18.09 4.93,-12.94 2.35,-24.78 -6.76,-33.1 -6.62,-6.04 -18.57,-13.17 -23.28,1.12z"/>
   <path class="fil26" d="M1742.04 286.25c7.84,3.19 13.63,1.46 21.88,5.84 7.53,4.01 8.75,7.39 15.37,10.85 14.65,-23.34 -31.4,-39 -37.25,-16.69z"/>
   <path class="fil24" d="M1687.49 285.54c9.79,-1.37 13.42,-3.78 24.77,-3.53 7.8,0.17 15.35,3.3 21.74,2.55l2.46 -6.36c-6.36,-7.78 -16.17,-8.43 -28.4,-7.21 -19.73,1.96 -19.8,6.96 -20.57,14.56z"/>
   <path class="fil24" d="M1677.74 278.86c3.83,3.5 -1.17,0.53 3.54,2.02 4.51,-22 -18.53,-46.79 -31.39,-34.33 4.55,10.22 -6.26,0.05 8.14,10.71 13.82,10.22 13.41,15.85 19.71,21.6z"/>
   <path class="fil25" d="M1929.3 105.46c-15.35,-0.27 -17.51,-10.2 -9.07,-20.65 8.43,3.3 9.66,10.22 9.07,20.65zm-6.76 -27.05c-22.4,4.95 -14.46,32.65 0.35,34.24 21.46,2.3 14.69,-27.12 -0.35,-34.24z"/>
   <path class="fil25" d="M1765.43 354.56c13.66,-0.01 14.98,-0.44 15.83,12.42 -9.33,1.69 -16.25,-0.96 -21.9,-5.05 1.75,-3.55 3.71,-4.98 6.07,-7.36zm-11.83 10.24c7.61,8.15 18.94,13.28 31.78,6.17 8.27,-28.45 -32.8,-33.07 -31.78,-6.17z"/>
   <path class="fil13" d="M1649.06 108.25c13.8,28.17 56.65,-3.11 50.34,-21.55 -3.56,-10.42 -2.45,-4.66 -6.19,-7.12 2.79,17.12 -5.51,21.12 -14.6,27.48 -10.31,7.21 -19.27,4.85 -29.55,1.19z"/>
   <path class="fil9" d="M1846.66 321.63c3.35,-2.68 -3.3,-6.57 14.04,-6.36 -3.43,8.85 -4.58,9.12 -14.04,6.36zm-2.82 13.16c7.65,3.09 11.08,2.73 19.68,0.83 2.67,-6.75 3.25,-10.17 2.7,-19.37 -3.03,-4.23 -0.17,-0.45 -3.36,-4.94l-14.83 0.64c-8.51,9.77 -8.33,11.36 -4.19,22.84z"/>
   <path class="fil13" d="M1678.3 210.43c8.88,8.19 11.58,12.08 26.6,9 8.08,1.43 12.46,-0.5 18.3,-5.03 7.16,-11.95 2.07,-27.61 -8.78,-36.72 3.34,11.43 9.58,21.11 3.22,30.76 -12.23,8.06 -26.31,5.82 -39.34,2z"/>
   <path class="fil24" d="M1650.76 234.56c3.27,-10.84 -19.05,-40.14 -37.02,-29.15 6.9,8.19 27.24,9.2 30.68,35.19 5.26,-2.84 3.2,4.32 6.33,-6.04z"/>
   <path class="fil11" d="M1631.2 131.45c2.99,-9.66 12,-11.44 15.24,-0.42 -3.33,1.58 -2.18,1.99 -8.13,2.12 -9.87,0.21 -4.68,-0.52 -7.1,-1.69zm10.65 13.92c16.47,-9.07 12.02,-23.87 -7.13,-25.18 -4.82,6.64 -11.33,14.42 -7.89,24.87l15.02 0.31z"/>
   <path class="fil27" d="M1845.95 237.19c-2.65,11.42 -8.37,18.04 -22.58,16.72 -5.77,-0.54 -10.01,-2.47 -14.45,-6.45l-6.91 -7.48c-0.28,-0.29 -1.16,-0.43 -1.36,-1.26 -0.21,-0.85 -0.92,-0.87 -1.41,-1.28 8.74,40.28 64.43,20.57 46.71,-0.25z"/>
   <path class="fil28" d="M1717.16 323.22c-4.51,6.72 -5.41,7.7 -13.19,1.56 0.07,-0.33 4.94,-6.08 13.19,-1.56zm-18.99 -2.31c0.14,7.81 2.19,8.71 6.92,13.41 12.2,0.9 17.04,-2.55 18.16,-13.41 -7.08,-8.44 -16.77,-9.19 -25.08,0z"/>
   <path class="fil29" d="M1866.94 33.43c-7.42,0.25 -4.71,-1.73 -6.71,-5.97 2.2,-1.92 9.52,-1.95 13.31,0.03 -1.31,2.4 -0.09,5.73 -6.6,5.94zm-13.08 -5.94c2.95,10.05 6.11,11.79 18.69,11.6 20.59,-25.13 -11.7,-23.8 -18.69,-11.6z"/>
   <path class="fil15" d="M1805.32 237.78c4.69,-7.16 0.71,-8.76 11.79,-10.57 12.01,-1.95 15.42,3.08 15.1,-10.27 -15.59,-7.3 -29.47,5.61 -26.88,20.84z"/>
   <path class="fil15" d="M1648.6 91.74c0.63,-0.52 1.51,-2.11 1.84,-1.62 0.31,0.47 1.33,-1.14 1.74,-1.57 15.85,-16.46 4.8,-4.78 26.2,-9.87 0.71,-0.17 2.7,-0.89 3.26,-1.11 0.4,-0.16 1.16,-0.62 1.48,-0.76 0.31,-0.14 0.96,-0.53 1.44,-0.81 -16.38,-14.04 -32.01,-0.15 -35.95,15.74z"/>
   <path class="fil30" d="M1587.53 288.57c5.96,-2.96 8.31,-5.47 11.07,-11.6 -5.45,-3.79 -7.63,-6.59 -15.69,-8.38 -7.11,10.06 -3.05,14.36 4.62,19.98z"/>
   <path class="fil13" d="M1641.85 145.37l-15.02 -0.31c-3.45,-10.45 3.07,-18.23 7.89,-24.87l-9.33 0.42c-3,9.2 -7.97,13.97 -4.58,24.59 0.33,0.45 12.06,10.24 21.04,0.17z"/>
   <path class="fil31" d="M1759.36 361.92c5.65,4.09 12.57,6.75 21.9,5.05 -0.85,-12.85 -2.17,-12.42 -15.83,-12.42 -2.36,2.38 -4.32,3.81 -6.07,7.36z"/>
   <path class="fil32" d="M1929.3 105.46c0.59,-10.43 -0.65,-17.35 -9.07,-20.65 -8.44,10.45 -6.28,20.38 9.07,20.65z"/>
   <path class="fil24" d="M1938.1 161.52c-9.34,-0.82 -26.6,-5.78 -29.67,-4.78 -7.84,14 22.87,10.68 29.67,4.78z"/>
   <path class="fil21" d="M1873.37 279.03c8.68,-2.63 4.84,-2.53 11.69,-9.4 6.01,-6.02 5.66,-2.83 6.98,-10.64 -13.94,0.09 -18.91,5 -18.68,20.04z"/>
   <path class="fil15" d="M1677.11 194.2c7.28,-7.1 19.4,-9.06 30.17,-15.55 -14.99,-5.5 -28.11,0.83 -30.17,15.55z"/>
   <path class="fil24" d="M1786.28 25.6c-1.57,10.37 1.29,15.22 3.6,23.88l9.95 -5.82c-1.71,-4.87 -8.34,-14.51 -13.55,-18.06z"/>
   <path class="fil15" d="M1925.24 183.9c-4.26,3.99 -12.02,20.91 -6.82,29.48l5.83 -20.5 11.38 -3.35c-2.85,-4.56 -3.93,-6.17 -10.39,-5.63z"/>
   <path class="fil21" d="M1781.99 163.59c20.6,1.51 18.89,-14.43 8.22,-12.45 -12.42,2.31 -8.42,9.92 -8.22,12.45z"/>
   <path class="fil24" d="M1596.49 169.01c2.52,5.38 5.31,9.7 7.02,15.71 2.78,9.71 -0.03,9.39 4.81,16.08 8.09,-10.04 -1.11,-27.2 -11.83,-31.79z"/>
   <path class="fil10" d="M1726.81 61.57c8.14,5.66 3.05,4.26 10.32,0.3 5.58,-3.04 7.06,-3.16 9.06,-8.32 -9.88,-4.93 -16.57,-2.35 -19.37,8.01z"/>
   <path class="fil6" d="M1704.9 219.42l1.36 5.74c0.09,-0.3 0.49,1.29 1.01,1.71 0.01,0.01 17.83,1.99 18.8,-7.78 0.8,-8.05 3.87,-1.49 -2.87,-4.7 -5.83,4.54 -10.22,6.46 -18.3,5.03z"/>
   <path class="fil33" d="M1817.31 350.29c5.53,4.81 8.94,4.92 15.75,9.01 -2.49,-10.21 -2.2,-13.65 -11.79,-16.4 -3.73,3.23 -2.43,-0.63 -3.96,7.39z"/>
   <path class="fil34" d="M1942.01 70.26c9.32,-0.28 12.82,-8.26 7.07,-11.7 -9.95,-5.96 -12.15,4.91 -7.07,11.7z"/>
   <path class="fil19" d="M1631.2 131.45c2.43,1.17 -2.77,1.91 7.1,1.69 5.95,-0.13 4.8,-0.53 8.13,-2.12 -3.24,-11.01 -12.25,-9.24 -15.24,0.42z"/>
   <polygon class="fil10" points="1626.34,195.43 1635.68,198.47 1636.07,184.39 1628.8,184.77 "/>
   <path class="fil34" d="M1716.91 379.74c7.53,-4.51 7.32,-1.72 3.46,-11.45 -10.07,-0.33 -13.25,5.04 -3.46,11.45z"/>
   <path class="fil21" d="M1771.92 139.48c-4.79,-2.15 -8.08,3.12 -8.51,3.53 3.48,4.73 2.09,6.34 9.36,5.66 0.07,-0.12 9,-4.77 -0.85,-9.19z"/>
   <path class="fil35" d="M1860.23 27.46c2,4.24 -0.71,6.22 6.71,5.97 6.51,-0.22 5.29,-3.55 6.6,-5.94 -3.8,-1.97 -11.11,-1.95 -13.31,-0.03z"/>
   <path class="fil18" d="M1846.66 321.63c9.45,2.76 10.6,2.49 14.04,-6.36 -17.34,-0.21 -10.68,3.68 -14.04,6.36z"/>
   <path class="fil13" d="M1592.26 293.18c2.78,1.53 1.46,5.14 8.66,-0.22 3.67,-2.73 3.69,-3.84 4.77,-8.85 -6.84,0.94 -10.04,5.26 -13.43,9.07z"/>
   <path class="fil19" d="M1581.96 206.76l1.81 -8.74c-15.72,0.6 -11.09,8.26 -1.81,8.74z"/>
   <path class="fil31" d="M1703.97 324.77c7.79,6.15 8.69,5.17 13.19,-1.56 -8.25,-4.52 -13.13,1.23 -13.19,1.56z"/>
  </g>
  <g id="_2801128225616">
   <path class="fil3" d="M1965.97 1089.77c-3.63,-1.5 -1.75,-0.4 -2.55,-2.38 3.53,-2.41 5.51,-1.32 5.85,2.44 -1.8,0.72 -0.89,0.94 -3.3,-0.05zm22.03 -7.06c-2.13,-1.14 -1.11,0.38 -1.86,-1.82 1.28,-3.16 3.08,-4.55 7.05,-3.77 0.43,3.43 0.98,1.87 -1.31,3.83 0.14,4.42 -1.11,3.99 -5.38,4.44 1.03,-2.64 -0.72,-0.84 1.5,-2.68zm39.79 -0.34c-1.8,-3.72 2.02,-8.58 6.08,-6.35 -0.72,2.27 -3.53,5.29 -6.08,6.35zm-26.56 -14.34c1.25,-6.37 4.07,-10.65 11.7,-9.08 2.38,2.24 3.88,5.09 4.57,8.29 4.61,4.43 -2.25,9.18 -6.94,8.74 -2.65,-0.24 -4.72,-1.32 -6.28,-2.68 -2,-1.75 -2.55,-2.34 -3.06,-5.27zm-29.28 -19.72l2.36 0.57c0.24,4.72 2.08,4.71 1.2,10.2l0.57 2.22c-1.03,0.99 -1.71,2.55 -3.84,2.93 -2.58,0.45 -3.59,-0.13 -3.96,-2.44 -4.02,0.24 -6.39,0.55 -8.52,-2.89 -1.48,-2.05 -2.7,-2.48 -2.99,-5.7 -0.27,-3.08 1.07,-4.86 2.8,-6.18 4.59,-3.48 9.07,-3.12 12.38,1.29zm-31.07 7.15c-0.97,-4.57 -1.63,-5.88 3.18,-6.26 -0.03,3.87 -0.17,4.58 -3.18,6.26zm54.21 -14.36c0.58,-3.36 4.38,-4.76 5.31,-2.9 1.24,2.48 -1.88,4.77 -5.31,2.9zm33.36 -3.8c5.84,-4.31 1.76,-1.71 3.94,-4.37 1.62,-1.97 -0.52,-0.51 2.09,-1.05 -1.16,4 -2.4,9.08 -6.97,6.95l0.94 -1.53zm-79.2 -5.14c-4.16,7.66 -15.11,3.32 -6.17,-5.41 4.4,-0.06 6.08,0.69 6.17,5.41zm53.41 -21.5c2.43,0.72 2.47,1.78 3.38,4.17 -3.1,-0.38 -4.78,-0.62 -6.97,-2.17 0.47,-1.76 0.89,-2.8 3.58,-2zm-26.49 -3.57c-0.36,-5.95 3,-4.8 6.31,-4.17 -0.57,2.49 0.46,0.86 -2.59,2.69 -2.11,1.26 -0.77,1.02 -3.72,1.48zm-21.91 0.93c5.39,-0.23 7.32,1.23 9.74,4.55 1.08,1.05 1.49,0.94 2.03,3.04 1.29,5.09 -10.61,16.69 -17.76,6.91 -0.81,-4.16 -1.53,-5.48 -0.31,-10.65 -5.03,4.64 -5.37,3.63 -9.21,10.28 -1.35,2.34 -4.74,10.01 -6.65,12.12 -1.43,0.04 -0.43,0.82 -1.08,-1.15l-1.95 6.19c2.56,0.44 0.82,-0.62 2.27,0.99 0.01,0.01 0.22,9.95 -1.27,12.18 -2.87,-1.7 -1.98,-6.25 -1.46,-9.43 -1.1,1.7 -2.57,19.27 4.28,23.41 2.95,-5.71 7.13,-2.88 10.37,0.45 2.66,2.74 6.16,4.81 4.51,10.49 -1.64,4.56 -3.11,3.4 -6.72,5.32 -0.24,8.96 9.29,13.14 16.22,17.13 4.25,-3.34 5.63,-2.88 8.79,1.14 2.79,3.53 5.67,3.03 5.91,7.59 5.65,0.77 5.4,3.78 12.52,3.75 2.75,-0.01 4.1,-0.31 6.72,-1.12 3.26,-1 2.71,-1.42 5.85,-2.01 -0.86,-10.41 12.8,-14.71 15.66,-6.88 1.06,0.88 3.57,3.16 4.04,-0.2 -1.46,-4.32 -1.55,-4.45 1.58,-8.12 3.9,-0.54 4.43,-0.72 6.43,1.58 3.89,0.91 1.53,2.25 5.48,1.04 4.08,-1.25 5.93,-7.63 8.74,-11.54 3.68,-5.13 8,-10.59 7.88,-19.48 -2.17,-1.77 -3.35,-1.72 -5.5,-4.14 -0.68,-5.4 -0.18,-9.06 2.55,-13.65 3.47,-0.76 3.21,-0.92 6.09,0.84 0.3,-2.95 0.58,-6.04 0.09,-9.03 -1,-6.06 -0.51,-2.33 -4.55,-4.23 -9.15,-1.57 -4.18,-4.66 -15.14,-4.53 -1.41,4.29 -10.19,8.25 -14.87,3.6 -1.56,-1.55 -2.91,-4.91 -1.71,-7.91 1.7,-4.29 2.93,-1.07 3.13,-7.73 -3.18,-4.32 -5.67,-3.72 -7.11,-11.23 -0.62,-3.23 -0.06,-6.22 -0.98,-8.82 -0.64,-1.8 -1.87,-3.05 -2.75,-5.75l-2.82 -1.38c-0.63,4.03 1.7,1.34 -1.89,3.28 -1.82,0.98 -7.24,-0.67 -12.05,-0.23 -4.43,0.41 -8.91,1.97 -13.37,2.94 -6.96,1.51 -19,5.31 -21.72,10.39z"/>
   <path class="fil4" d="M2045.54 1035.38c4.04,1.9 3.54,-1.83 4.55,4.23 0.5,2.99 0.21,6.08 -0.09,9.03 2.17,3.5 1.74,6.21 -0.25,9.8 -1.87,3.38 -3.65,4 -8.39,3.01 2.15,2.42 3.33,2.37 5.5,4.14 0.12,8.89 -4.2,14.35 -7.88,19.48 -2.81,3.91 -4.66,10.29 -8.74,11.54 -3.95,1.21 -1.59,-0.13 -5.48,-1.04 0.37,7.14 -1.45,8.7 -8.01,6.53 -0.47,3.36 -2.97,1.08 -4.04,0.2 0.46,6.22 -10.98,13.92 -15.66,6.88 -3.14,0.6 -2.6,1.01 -5.85,2.01 -2.63,0.81 -3.97,1.11 -6.72,1.12 -7.12,0.03 -6.87,-2.99 -12.52,-3.75 -3.42,3.23 -6.57,3.4 -11.22,0.92 -3.98,-2.13 -5,-4.87 -3.49,-9.65 -6.93,-3.99 -16.46,-8.17 -16.22,-17.13 3.61,-1.91 5.08,-0.76 6.72,-5.32 -8.69,6.54 -17.69,0.43 -14.88,-10.94 -6.86,-4.14 -5.39,-21.71 -4.28,-23.41l0.46 -3.74 1.95 -6.19c1.03,-12.85 15.32,-26.86 26.07,-34.04 7.81,-5.21 12.39,-5.62 21.93,-8.1 4.27,-1.11 8.02,-2.16 12.8,-1.9 5.43,0.3 7.53,1.68 11.47,2.57l2.82 1.38c-2.1,-6.77 -17.11,-6.25 -23.12,-5.28 -19.14,3.09 -24.93,6.48 -38.49,17.43l-13.35 14.28c-7.31,11.01 -9.88,31.78 -6.96,46.33 1.69,8.43 4.27,18.48 10.36,24.44l9.58 10.74c1.58,1.57 2.32,1.82 3.92,3.38 3.14,3.06 8.12,7.26 11.98,9.16 23.7,11.66 44.63,7.46 66.19,-3.9 8.78,-4.62 20.33,-21.02 24.87,-31.1 6.74,-14.95 8.5,-28.33 1.16,-43.4l-6.71 0.3z"/>
   <path class="fil5" d="M2046.58 1031.78c1.92,0.83 1.4,0.23 2.3,1.72 -5.29,-0 -9.76,-1.79 -10.72,-6.26 4.13,0.8 0.89,1.29 8.43,4.54zm-16.17 -0.93c10.96,-0.13 5.99,2.97 15.14,4.53l6.71 -0.3c7.34,15.07 5.58,28.45 -1.16,43.4 -4.54,10.08 -16.09,26.48 -24.87,31.1 -21.56,11.35 -42.49,15.56 -66.19,3.9 -3.87,-1.9 -8.84,-6.1 -11.98,-9.16 -1.6,-1.56 -2.34,-1.81 -3.92,-3.38l-9.58 -10.74c-6.09,-5.96 -8.67,-16.01 -10.36,-24.44 -2.92,-14.56 -0.35,-35.32 6.96,-46.33l13.35 -14.28c13.55,-10.95 19.35,-14.34 38.49,-17.43 6,-0.97 21.01,-1.5 23.12,5.28 0.88,2.7 2.11,3.95 2.75,5.75 0.92,2.6 0.36,5.59 0.98,8.82 1.44,7.51 3.93,6.91 7.11,11.23 2.32,-3.14 3.37,-3.14 6.77,-1.62l1.38 -0.4c4.37,7.54 4.12,5.25 9.41,7.64 3.08,1.4 1.98,-0.73 1.87,2.85 -2.5,1.83 -2.68,1.17 -5.88,0.7l-0.1 2.88zm-18.6 -25.55c-0.45,-3.94 -0.61,-3.7 1.94,-4.93 2.3,1.83 1.42,5.17 3.62,8.61 1.9,2.98 4.28,3.5 5.11,6.11 -6.95,3.27 -10.15,-5.16 -10.67,-9.79zm-3.07 -12.97c2.53,0.99 4.35,2.98 4.98,5.56 -4.03,0.19 -4.15,-1.77 -4.98,-5.56zm-25.78 -7.59c-22.79,4.17 -34.13,10.24 -45.93,23.48 -6.98,7.84 -9.54,8.19 -13.42,21.51 -2.68,9.19 -5.13,20 -3.62,30.18 4,26.89 8.57,25.91 16.02,36.17 2.71,3.74 5.51,6.24 8.66,9.24 14.4,13.7 26.44,18.64 52.86,16.97 10.28,-0.65 17.75,-4.46 25.79,-8.25 11.29,-5.34 12.13,-7.86 18.63,-16.36 5.23,-6.85 9.21,-11.87 13.29,-21.65 5.06,-12.14 6.67,-30.38 -0.21,-42.07 -3.32,-5.65 -6.05,-3.07 -11.25,-6.66 -2.17,-1.5 -2.74,-3.01 -4.11,-3.98 -2.24,-1.59 -3.83,-0.86 -6.75,-2.23 -6.02,-2.82 -4.06,-6.79 -8.38,-9.5 -4.47,-2.81 -5.72,-3.78 -6.52,-10.35 -0.68,-5.64 -2.96,-8.18 -6.79,-11.24 -5.67,-4.54 -19.77,-6.8 -28.26,-5.25z"/>
   <path class="fil6" d="M1931.02 1033.09c0.66,1.97 -0.35,1.19 1.08,1.15 1.91,-2.11 5.29,-9.78 6.65,-12.12 3.84,-6.64 4.18,-5.63 9.21,-10.28 2.14,-1.04 2.43,-2.6 6.3,-3.84 2.72,-5.08 14.76,-8.88 21.72,-10.39 4.46,-0.97 8.94,-2.53 13.37,-2.94 4.82,-0.44 10.23,1.21 12.05,0.23 3.59,-1.94 1.26,0.75 1.89,-3.28 -3.94,-0.89 -6.04,-2.28 -11.47,-2.57 -4.78,-0.26 -8.53,0.79 -12.8,1.9 -9.54,2.48 -14.12,2.88 -21.93,8.1 -10.76,7.18 -25.04,21.19 -26.07,34.04z"/>
   <path class="fil36" d="M2016.95 1018.8c-0.2,6.66 -1.43,3.44 -3.13,7.73 -1.19,3.01 0.15,6.36 1.71,7.91 4.68,4.66 13.46,0.69 14.87,-3.6l0.1 -2.88c-1.66,-4.48 -5.23,-3.05 -6.78,-10.8 -3.41,-1.51 -4.45,-1.52 -6.77,1.62z"/>
   <path class="fil8" d="M1948.33 1016.4c1.57,-6.8 7.73,-9.73 12.86,-4.85 -2.65,0.34 -7.85,0.55 -9.86,1.98l-2.99 2.87zm-0.38 -4.56c-1.22,5.17 -0.49,6.5 0.31,10.65 3.86,1.26 6.55,2.31 10.64,-0.47 3.1,-2.12 5.93,-3.75 5.09,-9.48 -2.42,-3.32 -4.35,-4.78 -9.74,-4.55 -3.87,1.24 -4.16,2.8 -6.3,3.84z"/>
   <path class="fil7" d="M1958.29 1052.82c-0.78,-6.07 6.38,-7.11 10.7,-5.75 -3.23,2.39 -8.5,3.02 -10.7,5.75zm1.47 6.07c6,1 8.65,0.84 13.42,-1.32 0.5,-4.15 -0.33,-5.75 -1.22,-9.26 -3.31,-4.41 -7.79,-4.77 -12.38,-1.29 -1.73,1.32 -3.07,3.09 -2.8,6.18 0.28,3.22 1.51,3.64 2.99,5.7z"/>
   <path class="fil8" d="M1934.06 1067.89c2.6,-6.82 8.08,-0.95 9.73,2.42 -1.68,0.52 -7.86,-1.51 -9.73,-2.42zm-1.17 -1.46c-2.81,11.38 6.19,17.48 14.88,10.94 1.65,-5.68 -1.85,-7.75 -4.51,-10.49 -3.24,-3.33 -7.42,-6.17 -10.37,-0.45z"/>
   <path class="fil8" d="M2003.32 1067.95c-0.41,-3.47 0.2,-5.32 2.81,-6.91 2.11,-1.28 4.4,-1.57 6.62,-0.46 0.2,6.55 -4.55,-0.05 -9.42,7.37zm-2.09 0.08c2.99,2.29 3.27,4.95 8.5,5.52 5.21,0.57 7.34,-1.79 7.77,-6.32 -0.69,-3.19 -2.19,-6.04 -4.57,-8.29 -7.64,-1.57 -10.46,2.71 -11.7,9.08z"/>
   <path class="fil8" d="M2002.78 1100.76c0.97,-0.61 1.95,-0.87 3.02,-0.97 2.93,-0.3 3.98,-0.16 4.19,2.55 -1.78,0.82 -7.65,1.1 -9.24,0.76 0.99,-1.74 -0.26,-0.9 2.04,-2.34zm-5.72 8.42c4.68,7.04 16.12,-0.66 15.66,-6.88 -2.86,-7.84 -16.52,-3.53 -15.66,6.88z"/>
   <path class="fil8" d="M1957.97 1102.4c1.48,-3.87 3.68,-5.22 5.75,-1.2 -2.24,1.14 -3.37,0.9 -5.75,1.2zm-0.71 -2.57c-1.52,4.78 -0.5,7.52 3.49,9.65 4.65,2.48 7.79,2.31 11.22,-0.92 -0.24,-4.56 -3.12,-4.06 -5.91,-7.59 -3.17,-4.02 -4.55,-4.48 -8.79,-1.14z"/>
   <path class="fil8" d="M2045.12 1052.24l-2.5 7.49c-0.64,-3.64 0.58,-8.15 2.81,-10.93l3.69 0.91c-1.14,2.05 0.61,0.6 -1.35,1.69 -0.41,0.23 -2.59,0.8 -2.65,0.85zm-3.75 9.2c4.74,0.99 6.52,0.37 8.39,-3.01 1.99,-3.59 2.42,-6.29 0.25,-9.8 -2.88,-1.77 -2.62,-1.6 -6.09,-0.84 -2.72,4.6 -3.23,8.25 -2.55,13.65z"/>
   <path class="fil25" d="M2033.79 999.72c0.9,-2.51 1.77,-3.69 3.95,-4.49 0.5,3.59 -0.68,3.87 -3.95,4.49zm-4.71 -8.19c2.39,-0.88 4.47,0.41 6.14,2.03 -0.77,2.31 -1.19,2.89 -2.87,4.19 -2.67,-1.08 -4.94,-2.53 -3.27,-6.23zm-0.48 -2.95c-7.33,8.98 4.99,14.06 8.03,12.89 7.89,-3.03 1.62,-12.69 -8.03,-12.89z"/>
   <path class="fil24" d="M2022.48 1015.09c-0.83,-2.61 -3.21,-3.13 -5.11,-6.11 -2.19,-3.44 -1.31,-6.79 -3.62,-8.61 -2.56,1.23 -2.39,0.99 -1.94,4.93 0.53,4.62 3.72,13.06 10.67,9.79z"/>
   <path class="fil28" d="M2047.68 1011.2c-1.04,-3.28 0.48,-3.72 1.81,-4.64 2.49,2.09 2.99,3.84 2.69,7.21 -2.81,0.41 -3.71,-0.05 -4.51,-2.57zm6.42 4.46c1.44,-5.37 -0.16,-8.66 -2.99,-10.97 -9.43,-0.2 -7.53,15.16 2.99,10.97z"/>
   <path class="fil9" d="M2020.17 1097.85c-1.1,0.17 -1.65,-0.12 -2.57,-0.29 0.6,-1.64 0,-2.31 2.84,-2.5 3.03,-0.2 2.27,1.15 2.38,1.27 -0.8,0.77 -0.63,1.21 -2.65,1.52zm-3.42 4.25c6.56,2.17 8.38,0.6 8.01,-6.53 -2,-2.3 -2.53,-2.12 -6.43,-1.58 -3.13,3.66 -3.04,3.8 -1.58,8.12z"/>
   <path class="fil13" d="M1959.75 1058.88c2.12,3.44 4.5,3.13 8.52,2.89 3.91,-0.08 5.1,-1.24 7.23,-2.71 0.89,-5.49 -0.96,-5.48 -1.2,-10.2l-2.36 -0.57c0.89,3.51 1.72,5.12 1.22,9.26 -4.76,2.16 -7.42,2.33 -13.42,1.32z"/>
   <path class="fil11" d="M1941.97 1031.55c1.22,-4.86 4.41,-4.85 5.76,-0.95l-5.76 0.95zm7.27 0.59c-0.08,-4.71 -1.77,-5.47 -6.17,-5.41 -8.95,8.72 2.01,13.07 6.17,5.41z"/>
   <path class="fil13" d="M1948.27 1022.5c7.15,9.77 19.05,-1.82 17.76,-6.91 -0.54,-2.1 -0.95,-1.99 -2.03,-3.04 0.84,5.73 -1.99,7.36 -5.09,9.48 -4.09,2.79 -6.78,1.74 -10.64,0.47z"/>
   <path class="fil37" d="M2030.5 1027.97c3.2,0.48 3.39,1.13 5.88,-0.7 0.11,-3.58 1.21,-1.46 -1.87,-2.85 -5.29,-2.4 -5.04,-0.1 -9.41,-7.64l-1.38 0.4c1.55,7.74 5.12,6.32 6.78,10.8z"/>
   <path class="fil13" d="M2001.23 1068.02c0.51,2.93 1.05,3.52 3.06,5.27 1.56,1.36 3.63,2.44 6.28,2.68 4.69,0.43 11.55,-4.31 6.94,-8.74 -0.43,4.52 -2.56,6.89 -7.77,6.32 -5.23,-0.58 -5.51,-3.23 -8.5,-5.52z"/>
   <path class="fil29" d="M2051.11 989.98c2.23,1.08 2.05,0.91 2.92,3.81 -3.63,0.38 -3.31,-0.47 -2.92,-3.81zm-0.58 -2.19c-4.08,4.47 -0.79,9.81 3.63,8.42 3.82,-1.2 2.08,-8.1 -3.63,-8.42z"/>
   <path class="fil38" d="M2003.32 1067.95c4.87,-7.42 9.62,-0.81 9.42,-7.37 -2.22,-1.11 -4.51,-0.82 -6.62,0.46 -2.61,1.58 -3.22,3.43 -2.81,6.91z"/>
   <path class="fil17" d="M1928.61 1043.02c-0.52,3.18 -1.4,7.73 1.46,9.43 1.48,-2.23 1.27,-12.16 1.27,-12.18 -1.45,-1.61 0.29,-0.56 -2.27,-0.99l-0.46 3.74z"/>
   <path class="fil15" d="M1934.06 1067.89c1.87,0.9 8.05,2.93 9.73,2.42 -1.65,-3.37 -7.13,-9.23 -9.73,-2.42z"/>
   <path class="fil39" d="M2029.08 991.53c-1.67,3.69 0.6,5.15 3.27,6.23 1.68,-1.3 2.1,-1.88 2.87,-4.19 -1.68,-1.62 -3.75,-2.92 -6.14,-2.03z"/>
   <path class="fil15" d="M1951.33 1013.53c2.02,-1.43 7.21,-1.63 9.86,-1.98 -5.12,-4.88 -11.29,-1.95 -12.86,4.85l2.99 -2.87z"/>
   <path class="fil20" d="M1988 1082.71l3.88 -1.76c2.29,-1.96 1.75,-0.4 1.31,-3.83 -3.97,-0.78 -5.77,0.61 -7.05,3.77 0.75,2.19 -0.27,0.68 1.86,1.82z"/>
   <path class="fil31" d="M2052.18 1013.77c0.3,-3.37 -0.2,-5.12 -2.69,-7.21 -1.33,0.92 -2.85,1.36 -1.81,4.64 0.8,2.52 1.69,2.98 4.51,2.57z"/>
   <path class="fil15" d="M1958.29 1052.82c2.2,-2.74 7.47,-3.36 10.7,-5.75 -4.32,-1.35 -11.48,-0.31 -10.7,5.75z"/>
   <path class="fil21" d="M2027.79 1082.36c2.55,-1.06 5.36,-4.07 6.08,-6.35 -4.06,-2.23 -7.88,2.62 -6.08,6.35z"/>
   <path class="fil38" d="M2000.74 1103.09c1.59,0.34 7.46,0.06 9.24,-0.76 -0.2,-2.71 -1.26,-2.85 -4.19,-2.55 -1.07,0.11 -2.05,0.37 -3.02,0.97 -2.29,1.44 -1.04,0.6 -2.04,2.34z"/>
   <path class="fil40" d="M2048.87 1033.49c-0.89,-1.49 -0.37,-0.89 -2.3,-1.72 -7.53,-3.25 -4.29,-3.74 -8.43,-4.54 0.97,4.47 5.43,6.25 10.72,6.26z"/>
   <path class="fil10" d="M1968.27 1061.78c0.37,2.31 1.39,2.9 3.96,2.44 2.13,-0.38 2.81,-1.94 3.84,-2.93l-0.57 -2.22c-2.13,1.47 -3.33,2.62 -7.23,2.71z"/>
   <path class="fil19" d="M2045.12 1052.24c0.06,-0.05 2.24,-0.62 2.65,-0.85 1.95,-1.08 0.21,0.36 1.35,-1.69l-3.69 -0.91c-2.23,2.78 -3.45,7.3 -2.81,10.93l2.5 -7.49z"/>
   <path class="fil10" d="M2027.5 1038.82c4.57,2.13 5.81,-2.95 6.97,-6.95 -2.61,0.54 -0.47,-0.92 -2.09,1.05 -2.18,2.66 1.9,0.06 -3.94,4.37l-0.94 1.53z"/>
   <path class="fil10" d="M1976.16 1007.07c2.95,-0.46 1.62,-0.23 3.72,-1.48 3.05,-1.82 2.02,-0.19 2.59,-2.69 -3.31,-0.63 -6.67,-1.78 -6.31,4.17z"/>
   <path class="fil10" d="M1999.07 1012.65c2.18,1.55 3.86,1.79 6.97,2.17 -0.91,-2.4 -0.95,-3.45 -3.38,-4.17 -2.7,-0.8 -3.12,0.24 -3.58,2z"/>
   <path class="fil21" d="M1995.08 1041.08c3.44,1.87 6.55,-0.42 5.31,-2.9 -0.93,-1.86 -4.73,-0.46 -5.31,2.9z"/>
   <path class="fil21" d="M1963.42 1087.39c0.8,1.98 -1.08,0.88 2.55,2.38 2.41,1 1.5,0.78 3.3,0.05 -0.34,-3.76 -2.32,-4.85 -5.85,-2.44z"/>
   <path class="fil10" d="M1940.88 1055.45c3.01,-1.69 3.15,-2.4 3.18,-6.26 -4.81,0.38 -4.15,1.69 -3.18,6.26z"/>
   <path class="fil10" d="M1988 1082.71c-2.22,1.84 -0.47,0.03 -1.5,2.68 4.27,-0.45 5.52,-0.02 5.38,-4.44l-3.88 1.76z"/>
   <path class="fil26" d="M2013.71 997.89c-0.63,-2.58 -2.45,-4.56 -4.98,-5.56 0.83,3.78 0.96,5.75 4.98,5.56z"/>
   <path class="fil19" d="M1941.97 1031.55l5.76 -0.95c-1.35,-3.91 -4.54,-3.91 -5.76,0.95z"/>
   <path class="fil19" d="M1957.97 1102.4c2.38,-0.3 3.51,-0.06 5.75,-1.2 -2.07,-4.02 -4.27,-2.67 -5.75,1.2z"/>
   <path class="fil15" d="M2017.6 1097.56c0.92,0.17 1.48,0.46 2.57,0.29 2.02,-0.31 1.85,-0.75 2.65,-1.52 -0.12,-0.12 0.65,-1.47 -2.38,-1.27 -2.84,0.19 -2.24,0.87 -2.84,2.5z"/>
   <path class="fil41" d="M2033.79 999.72c3.27,-0.62 4.45,-0.89 3.95,-4.49 -2.18,0.79 -3.05,1.98 -3.95,4.49z"/>
   <path class="fil42" d="M2054.03 993.79c-0.87,-2.9 -0.69,-2.73 -2.92,-3.81 -0.38,3.34 -0.71,4.19 2.92,3.81z"/>
  </g>
 </g>
</svg>
